<svg width="36" height="36" viewBox="0 0 36 36" fill="none" xmlns="http://www.w3.org/2000/svg">
<path d="M36 7.03029C36 6.22221 35.7172 5.53535 35.1515 4.96971L31.0303 0.848492C30.4646 0.282833 29.7778 0 28.9697 0C28.1616 0 27.4748 0.282833 26.9091 0.848492L18 9.75759L9.0909 0.848492C8.52524 0.282833 7.83837 0 7.03029 0C6.22221 0 5.53535 0.282833 4.96971 0.848492L0.84849 4.96971C0.28283 5.53535 0 6.22221 0 7.03029C0 7.83837 0.28283 8.52524 0.84849 9.0909L9.75759 18L0.84849 26.9091C0.28283 27.4748 0 28.1616 0 28.9697C0 29.7778 0.28283 30.4647 0.84849 31.0303L4.96971 35.1515C5.53535 35.7172 6.22221 36 7.03029 36C7.83837 36 8.52524 35.7172 9.0909 35.1515L18 26.2424L26.9091 35.1515C27.4748 35.7172 28.1616 36 28.9697 36C29.7778 36 30.4646 35.7172 31.0303 35.1515L35.1515 31.0303C35.7172 30.4647 36 29.7778 36 28.9697C36 28.1616 35.7172 27.4748 35.1515 26.9091L26.2424 18L35.1515 9.0909C35.7172 8.52524 36 7.83837 36 7.03029Z" fill="black" fill-opacity="0.7"/>
</svg>
