<svg width="24" height="24" viewBox="0 0 24 24" fill="none" xmlns="http://www.w3.org/2000/svg">
<path d="M2.36538 20.5769V3.0769H11.8653V7.0769H21.6346V20.5769H2.36538ZM3.86533 19.0769H6.36536V16.5769H3.86533V19.0769ZM3.86533 15.0769H6.36536V12.5769H3.86533V15.0769ZM3.86533 11.0769H6.36536V8.57688H3.86533V11.0769ZM3.86533 7.0769H6.36536V4.57688H3.86533V7.0769ZM7.86533 19.0769H10.3654V16.5769H7.86533V19.0769ZM7.86533 15.0769H10.3654V12.5769H7.86533V15.0769ZM7.86533 11.0769H10.3654V8.57688H7.86533V11.0769ZM7.86533 7.0769H10.3654V4.57688H7.86533V7.0769ZM11.8653 19.0769H20.1346V8.57688H11.8653V11.0769H14.0577V12.5769H11.8653V15.0769H14.0577V16.5769H11.8653V19.0769ZM16.25 12.5769V11.0769H17.7499V12.5769H16.25ZM16.25 16.5769V15.0769H17.7499V16.5769H16.25Z" fill="#FB8C00"/>
</svg>
