<svg width="24" height="24" viewBox="0 0 24 24" fill="none" xmlns="http://www.w3.org/2000/svg">
<path d="M5.3077 20.5C4.80898 20.5 4.38302 20.3233 4.02982 19.9701C3.67661 19.6169 3.5 19.191 3.5 18.6923V5.3077C3.5 4.80898 3.67661 4.38302 4.02982 4.02982C4.38302 3.67661 4.80898 3.5 5.3077 3.5H18.6923C19.191 3.5 19.6169 3.67661 19.9701 4.02982C20.3233 4.38302 20.5 4.80898 20.5 5.3077V18.6923C20.5 19.191 20.3233 19.6169 19.9701 19.9701C19.6169 20.3233 19.191 20.5 18.6923 20.5H5.3077ZM12.75 12.75V19H18.6923C18.782 19 18.8557 18.9711 18.9134 18.9134C18.9711 18.8557 19 18.782 19 18.6923V12.75H12.75ZM12.75 11.25H19V5.3077C19 5.21795 18.9711 5.14423 18.9134 5.08653C18.8557 5.02883 18.782 4.99998 18.6923 4.99998H12.75V11.25ZM11.25 11.25V4.99998H5.3077C5.21795 4.99998 5.14423 5.02883 5.08653 5.08653C5.02883 5.14423 4.99997 5.21795 4.99997 5.3077V11.25H11.25ZM11.25 12.75H4.99997V18.6923C4.99997 18.782 5.02883 18.8557 5.08653 18.9134C5.14423 18.9711 5.21795 19 5.3077 19H11.25V12.75Z" fill="#D81B60"/>
</svg>
