<svg width="24" height="24" viewBox="0 0 24 24" fill="none" xmlns="http://www.w3.org/2000/svg">
<path d="M3.25 20.5769V7.0769H7.25V3.0769H16.75V11.0769H20.75V20.5769H13.25V16.5769H10.75V20.5769H3.25ZM4.74995 19.0769H7.25V16.5769H4.74995V19.0769ZM4.74995 15.0769H7.25V12.5769H4.74995V15.0769ZM4.74995 11.0769H7.25V8.57688H4.74995V11.0769ZM8.74995 15.0769H11.25V12.5769H8.74995V15.0769ZM8.74995 11.0769H11.25V8.57688H8.74995V11.0769ZM8.74995 7.0769H11.25V4.57688H8.74995V7.0769ZM12.75 15.0769H15.25V12.5769H12.75V15.0769ZM12.75 11.0769H15.25V8.57688H12.75V11.0769ZM12.75 7.0769H15.25V4.57688H12.75V7.0769ZM16.75 19.0769H19.25V16.5769H16.75V19.0769ZM16.75 15.0769H19.25V12.5769H16.75V15.0769Z" fill="#ab7854"/>
</svg>
