<svg width="30" height="30" viewBox="0 0 30 30" fill="none" xmlns="http://www.w3.org/2000/svg">
<path d="M12.2836 26.8749H4.13466C3.51126 26.8749 2.97881 26.6542 2.53731 26.2127C2.09577 25.7712 1.875 25.2387 1.875 24.6153V17.7163H3.75V24.6153C3.75 24.7275 3.78606 24.8197 3.85819 24.8918C3.93031 24.9639 4.02247 25 4.13466 25H12.2836V26.8749ZM17.7164 26.8749V25H25.8653C25.9775 25 26.0697 24.9639 26.1418 24.8918C26.2139 24.8197 26.25 24.7275 26.25 24.6153V17.7163H28.125V24.6153C28.125 25.2387 27.9042 25.7712 27.4627 26.2127C27.0212 26.6542 26.4887 26.8749 25.8653 26.8749H17.7164ZM1.87506 12.2956V5.38463C1.87506 4.76123 2.09581 4.22878 2.53731 3.78728C2.97881 3.34576 3.51126 3.125 4.13466 3.125H12.2836V4.99997H4.13466C4.02247 4.99997 3.93031 5.03603 3.85819 5.10816C3.78606 5.18028 3.75 5.27244 3.75 5.38463V12.2956H1.87506ZM26.25 12.2956V5.38463C26.25 5.27244 26.2139 5.18028 26.1418 5.10816C26.0697 5.03603 25.9775 4.99997 25.8653 4.99997H17.7164V3.125H25.8653C26.4887 3.125 27.0212 3.34576 27.4627 3.78728C27.9042 4.22878 28.125 4.76123 28.125 5.38463V12.2956H26.25Z" fill="#fb8c00"/>
</svg>
