<svg version="1.2" xmlns="http://www.w3.org/2000/svg" viewBox="0 0 30 30" width="30" height="30">
	<title>pageless-FH</title>
	<style>
		.s0 { fill: #32d4e8 } 
	</style>
	<path class="s0" d="m12.3 26.9h-8.2q-0.9 0-1.6-0.7-0.6-0.6-0.6-1.6v-6.9h1.8v6.9q0 0.2 0.2 0.3 0.1 0.1 0.2 0.1h8.2zm5.4 0v-1.9h8.2q0.1 0 0.2-0.1 0.1-0.1 0.1-0.3v-6.9h1.9v6.9q0 1-0.6 1.6-0.7 0.7-1.6 0.7zm-15.9-14.6v-6.9q0-0.9 0.7-1.6 0.6-0.6 1.6-0.6h8.1v1.8h-8.1q-0.2 0-0.3 0.1-0.1 0.1-0.1 0.3v6.9zm24.4 0v-6.9q0-0.2-0.1-0.3-0.1-0.1-0.3-0.1h-8.2v-1.8h8.2q0.9 0 1.6 0.6 0.6 0.7 0.6 1.6v6.9z"/>
</svg>