<svg width="30" height="30" viewBox="0 0 30 30" fill="none" xmlns="http://www.w3.org/2000/svg">
<path d="M17.1875 15.8894C16.3142 15.8894 15.575 15.5869 14.97 14.982C14.3651 14.377 14.0626 13.6378 14.0626 12.7644C14.0626 11.8911 14.3651 11.1519 14.97 10.5469C15.575 9.94199 16.3142 9.63951 17.1875 9.63951C18.0609 9.63951 18.8001 9.94199 19.4051 10.5469C20.01 11.1519 20.3125 11.8911 20.3125 12.7644C20.3125 13.6378 20.01 14.377 19.4051 14.982C18.8001 15.5869 18.0609 15.8894 17.1875 15.8894ZM8.94239 19.7596C8.32102 19.7596 7.78907 19.5383 7.34655 19.0958C6.90405 18.6533 6.6828 18.1214 6.6828 17.5V8.02888C6.6828 7.40751 6.90405 6.87556 7.34655 6.43304C7.78907 5.99054 8.32102 5.76929 8.94239 5.76929H25.4327C26.0541 5.76929 26.5861 5.99054 27.0285 6.43304C27.471 6.87556 27.6923 7.40751 27.6923 8.02888V17.5C27.6923 18.1214 27.471 18.6533 27.0285 19.0958C26.5861 19.5383 26.0541 19.7596 25.4327 19.7596H8.94239ZM10.8174 17.8847H23.5578C23.5578 17.2613 23.779 16.7288 24.2215 16.2873C24.664 15.8458 25.196 15.625 25.8174 15.625V9.90385C25.194 9.90385 24.6615 9.6826 24.22 9.2401C23.7785 8.79758 23.5578 8.26563 23.5578 7.64426H10.8174C10.8174 8.26765 10.5961 8.8001 10.1536 9.2416C9.71109 9.6831 9.17914 9.90385 8.55777 9.90385V15.625C9.18116 15.625 9.71361 15.8463 10.1551 16.2888C10.5966 16.7313 10.8174 17.2633 10.8174 17.8847ZM23.9664 24.1346H4.56746C3.94606 24.1346 3.41411 23.9133 2.97161 23.4708C2.52911 23.0283 2.30786 22.4963 2.30786 21.875V9.49526H4.1828V21.875C4.1828 21.9711 4.22287 22.0593 4.30302 22.1394C4.38314 22.2195 4.47129 22.2596 4.56746 22.2596H23.9664V24.1346ZM8.94239 17.8847H8.55777V7.64426H8.94239C8.83823 7.64426 8.74808 7.68232 8.67196 7.75844C8.59583 7.83457 8.55777 7.92471 8.55777 8.02888V17.5C8.55777 17.6042 8.59583 17.6943 8.67196 17.7704C8.74808 17.8466 8.83823 17.8847 8.94239 17.8847Z" fill="#3390b9"/>
</svg>
