<svg width="30" height="30" viewBox="0 0 30 30" fill="none" xmlns="http://www.w3.org/2000/svg">
<path d="M23.75 17.9808V9.54325L17.1874 4.95188L10.6249 9.54325V12.1635H8.74997V8.61779L17.1874 2.59619L25.6249 8.61779V17.9808H23.75ZM17.8725 10.2764H19.0023V9.14663H17.8725V10.2764ZM15.3725 10.2764H16.5023V9.14663H15.3725V10.2764ZM17.8725 12.7764H19.0023V11.6466H17.8725V12.7764ZM15.3725 12.7764H16.5023V11.6466H15.3725V12.7764ZM8.37735 23.2211L17.4495 25.7884L24.911 23.4759C24.8469 23.1923 24.7147 22.9747 24.5143 22.8233C24.3139 22.6718 24.0872 22.5961 23.8341 22.5961H17.7125C17.167 22.5961 16.7035 22.5753 16.3221 22.5336C15.9407 22.492 15.5489 22.4006 15.1466 22.2596L12.3245 21.3269L12.8798 19.4904L15.411 20.3702C15.7892 20.4984 16.2259 20.5858 16.7211 20.6323C17.2163 20.6787 17.9207 20.7084 18.8341 20.7212C18.8341 20.4119 18.7644 20.145 18.625 19.9207C18.4856 19.6963 18.3021 19.5449 18.0745 19.4663L10.8221 16.8029C10.7981 16.7949 10.776 16.7889 10.756 16.7849C10.736 16.7809 10.7139 16.7788 10.6899 16.7788H8.37735V23.2211ZM2.12744 26.8749V14.9039H10.6757C10.807 14.9039 10.9399 14.9183 11.0745 14.9472C11.2091 14.976 11.3341 15.0097 11.4495 15.0481L18.7331 17.7308C19.3004 17.9408 19.7716 18.3122 20.1466 18.845C20.5216 19.3778 20.7091 20.0032 20.7091 20.7212H23.8341C24.7315 20.7212 25.4627 21.0108 26.0276 21.5902C26.5925 22.1695 26.8749 22.9215 26.8749 23.8461V24.8557L17.512 27.7644L8.37735 25.1586V26.8749H2.12744ZM4.00241 25H6.50241V16.7788H4.00241V25Z" fill="#fb8c00"/>
</svg>
