<svg version="1.2" xmlns="http://www.w3.org/2000/svg" viewBox="0 0 30 30" width="30" height="30">
	<title>properties-icon-hand-FH</title>
	<style>
		.s0 { fill: #32d4e8 } 
	</style>
	<path class="s0" d="m23.8 18l-0.1-8.5-6.5-4.5-6.6 4.5v2.7h-1.9v-3.6l8.5-6 8.4 6v9.4zm-5.9-7.7h1.2v-1.2h-1.2zm-2.5 0h1.2v-1.1h-1.2zm2.5 2.5h1.2v-1.1h-1.2zm-2.5 0h1.2v-1.1h-1.2zm-13.2 14.1v-12h8.6q0.1 0 0.3 0 0.3 0.1 0.4 0.1l7.3 2.7q0.9 0.3 1.4 1.1 0.6 0.8 0.6 1.9h3.1q1.4 0 2.2 0.9 0.8 0.8 0.8 2.2v1l-9.3 2.9-9.1-2.6v1.8zm6.2-3.7l9.1 2.6 7.4-2.3q-0.1-0.5-0.4-0.7-0.3-0.2-0.6-0.2h-6.2q-0.8 0-1.4-0.1-0.5 0-1.1-0.3l-2.9-0.9 0.6-1.8 2.5 0.9q0.6 0.1 1.3 0.2 0.8 0.1 2.2 0.1 0-0.5-0.3-0.8-0.2-0.3-0.5-0.5l-7.3-2.6q0 0 0 0 0 0-0.1 0h-2.3zm-4.4 1.7h2.5v-8.2h-2.5z"/>
</svg>