<svg width="24" height="24" viewBox="0 0 24 24" fill="none" xmlns="http://www.w3.org/2000/svg">
<path d="M2.5 20.5V9.25004L9.99998 3.60583L14.6826 7.13656C14.3813 7.19296 14.0987 7.27758 13.8346 7.39041C13.5705 7.50323 13.3166 7.64745 13.0731 7.82309L9.99998 5.48079L3.99998 10V19H8.05768V20.5H2.5ZM10.25 20.5V18.8863C10.25 18.589 10.3279 18.3119 10.4837 18.0548C10.6394 17.7978 10.8449 17.5904 11.1 17.4327C11.8474 16.9891 12.6324 16.6555 13.4548 16.4317C14.2772 16.208 15.1256 16.0962 16 16.0962C16.8743 16.0962 17.7227 16.208 18.5452 16.4317C19.3676 16.6555 20.1525 16.9891 20.9 17.4327C21.1551 17.5904 21.3605 17.7978 21.5163 18.0548C21.6721 18.3119 21.75 18.589 21.75 18.8863V20.5H10.25ZM11.8423 19H20.1577V18.7308C19.5231 18.3654 18.8567 18.0849 18.1587 17.8894C17.4606 17.6939 16.741 17.5961 16 17.5961C15.2589 17.5961 14.5394 17.6939 13.8413 17.8894C13.1432 18.0849 12.4769 18.3654 11.8423 18.7308V19ZM16.0011 14.5481C15.2375 14.5481 14.5881 14.2808 14.0529 13.7463C13.5176 13.2118 13.25 12.5628 13.25 11.7992C13.25 11.0356 13.5173 10.3862 14.0518 9.85096C14.5863 9.31571 15.2353 9.04809 15.9989 9.04809C16.7624 9.04809 17.4118 9.31534 17.9471 9.84984C18.4823 10.3843 18.75 11.0334 18.75 11.7969C18.75 12.5605 18.4827 13.2099 17.9482 13.7452C17.4137 14.2804 16.7647 14.5481 16.0011 14.5481ZM16 13.0481C16.3474 13.0481 16.6426 12.9266 16.8856 12.6837C17.1285 12.4407 17.25 12.1455 17.25 11.7981C17.25 11.4506 17.1285 11.1554 16.8856 10.9125C16.6426 10.6695 16.3474 10.5481 16 10.5481C15.6525 10.5481 15.3573 10.6695 15.1144 10.9125C14.8714 11.1554 14.75 11.4506 14.75 11.7981C14.75 12.1455 14.8714 12.4407 15.1144 12.6837C15.3573 12.9266 15.6525 13.0481 16 13.0481Z" fill="#00897B"/>
</svg>
