<svg width="30" height="30" viewBox="0 0 30 30" fill="none" xmlns="http://www.w3.org/2000/svg">
<path d="M17.3798 26.3173C17.0201 26.6762 16.5744 26.8557 16.0427 26.8557C15.511 26.8557 15.0657 26.6762 14.7067 26.3173L3.70672 15.3173C3.52564 15.1362 3.38342 14.9277 3.28006 14.6919C3.17669 14.4562 3.125 14.2047 3.125 13.9375V4.99997C3.125 4.48876 3.3097 4.04847 3.67909 3.67909C4.04847 3.3097 4.48876 3.125 4.99997 3.125H13.9375C14.1955 3.125 14.4426 3.17536 14.6789 3.27606C14.9152 3.37675 15.1199 3.51229 15.2932 3.68269L26.2932 14.7019C26.6602 15.0689 26.8457 15.5172 26.8497 16.0468C26.8537 16.5765 26.6762 17.0208 26.3173 17.3798L17.3798 26.3173ZM16.0378 25L24.9808 16.0625L13.9428 4.99997H4.99997V13.9375L16.0378 25ZM8.12356 9.68744C8.55719 9.68744 8.92624 9.53567 9.23072 9.23213C9.5352 8.92858 9.68744 8.56 9.68744 8.12638C9.68744 7.69275 9.53567 7.3237 9.23213 7.01922C8.92858 6.71474 8.56 6.5625 8.12638 6.5625C7.69275 6.5625 7.3237 6.71427 7.01922 7.01781C6.71474 7.32135 6.5625 7.68994 6.5625 8.12356C6.5625 8.55719 6.71427 8.92624 7.01781 9.23072C7.32135 9.5352 7.68994 9.68744 8.12356 9.68744Z" fill="#8E24AA"/>
</svg>
