<?xml version="1.0" encoding="UTF-8"?>
<svg version="1.1" xmlns="http://www.w3.org/2000/svg" width="32" height="32">
<path d="M0 0 C3 0.125 3 0.125 4 1.125 C4.04092937 3.45797433 4.04241723 5.79205225 4 8.125 C4.66 8.125 5.32 8.125 6 8.125 C7.26237731 10.64975462 7.09856404 12.43700466 7.0625 15.25 C7.05347656 16.16007812 7.04445313 17.07015625 7.03515625 18.0078125 C7.02355469 18.70648437 7.01195313 19.40515625 7 20.125 C6.01 20.125 5.02 20.125 4 20.125 C4 21.775 4 23.425 4 25.125 C5.98 25.785 7.96 26.445 10 27.125 C9.625 29.0625 9.625 29.0625 9 31.125 C6.04412889 32.60293555 3.35002355 32.29553651 0.0625 32.3125 C-1.18402344 32.32667969 -2.43054688 32.34085938 -3.71484375 32.35546875 C-7 32.125 -7 32.125 -10 30.125 C-10 29.135 -10 28.145 -10 27.125 C-8.02 26.465 -6.04 25.805 -4 25.125 C-4 23.475 -4 21.825 -4 20.125 C-4.99 20.125 -5.98 20.125 -7 20.125 C-7 16.495 -7 12.865 -7 9.125 C-6.01 8.795 -5.02 8.465 -4 8.125 C-4.020625 6.990625 -4.04125 5.85625 -4.0625 4.6875 C-3.98317484 0.16596562 -3.98317484 0.16596562 0 0 Z " fill="#FBBE08" transform="translate(16,-0.125)"/>
<path d="M0 0 C0.33 0.99 0.66 1.98 1 3 C2.98 3 4.96 3 7 3 C7.33 2.01 7.66 1.02 8 0 C9.98 0.66 11.96 1.32 14 2 C13.625 3.9375 13.625 3.9375 13 6 C10.04412889 7.47793555 7.35002355 7.17053651 4.0625 7.1875 C2.81597656 7.20167969 1.56945312 7.21585938 0.28515625 7.23046875 C-3 7 -3 7 -6 5 C-6 4.01 -6 3.02 -6 2 C-2.25 0 -2.25 0 0 0 Z " fill="#F29001" transform="translate(12,25)"/>
</svg>
