<svg width="123" height="166" viewBox="0 0 123 166" fill="none" xmlns="http://www.w3.org/2000/svg">
<path d="M121.05 66.5628C119.067 60.0494 115.279 54.2511 110.267 50.0265C109.688 49.5347 109.232 49.0892 109.251 49.043C109.286 49.0076 109.012 48.5539 108.642 48.0485C107.827 46.9399 107.185 45.7824 106.873 44.8558C106.753 44.47 106.601 44.2037 106.541 44.2581C106.481 44.3124 106.177 43.0733 105.853 41.4565C104.722 35.8179 103.071 30.8208 100.813 26.2423C93.6388 11.6537 81.5861 2.02827 68.5606 0.512042C65.1909 0.113307 62.56 0.230736 59.1121 0.921732C55.0562 1.74874 51.8883 3.06198 47.9745 5.58467C47.4615 5.9136 47.3421 5.95167 47.513 5.74782C47.7409 5.47602 47.7274 5.47874 47.4342 5.63642C46.5928 6.0877 43.9429 6.32199 43.0115 6.04229C42.8458 5.99069 42.6911 5.99344 42.6585 6.04237C42.6395 6.08857 42.0367 5.89848 41.3305 5.61601C33.6123 2.5415 25.6493 3.60034 19.2716 8.55301C11.9873 14.1961 7.69498 24.1295 7.70142 35.2929C7.7061 38.698 7.92983 40.5893 8.83362 44.6762C9.89802 49.4941 10.5834 51.4342 13.0488 56.3387C13.1467 56.5452 13.1359 56.5615 12.9946 56.4203C12.856 56.2926 12.8616 56.5317 13.0223 57.3333C13.4089 59.2627 13.1357 60.9286 12.1889 62.4044C11.6762 63.2279 11.6763 63.2985 12.1566 62.8772C12.3249 62.7304 12.5257 62.6054 12.5936 62.5918C12.6723 62.5619 12.2435 62.9587 11.6356 63.448C4.67454 69.1535 0.509701 78.9483 0.510408 89.59C0.50964 92.9678 0.68436 94.6146 1.41144 98.3129C2.11397 101.818 2.47312 103.117 3.57439 105.935C5.05906 109.75 7.07301 113.247 9.63525 116.45C13.9446 121.819 19.0511 125.318 25.001 126.966C26.6901 127.433 27.0431 127.575 26.0411 127.366C25.5578 127.279 25.5768 127.303 26.5247 127.947C27.6194 128.689 28.5269 129.765 29.0244 130.909C29.6361 132.341 29.8601 134.656 29.5516 136.357C29.3811 137.338 29.5005 137.229 29.8067 136.151C29.9476 135.656 30.0912 135.246 30.132 135.237C30.1727 135.229 29.9722 135.99 29.6931 136.922C29.4112 137.841 29.113 138.607 29.0125 138.599C28.9284 138.602 28.9094 138.648 28.98 138.719C29.23 138.98 27.3483 143.54 25.843 146.315C24.5736 148.647 22.6448 151.492 22.3868 151.403C22.2944 151.365 22.27 151.384 22.3271 151.457C22.596 151.742 19.2802 155.276 17.0629 157.105C14.4468 159.269 11.7027 160.865 7.92135 162.428C6.78941 162.909 5.75521 163.385 5.62495 163.51C5.30474 163.814 5.45714 164.434 5.90253 164.613C6.45383 164.828 8.45778 165.105 10.0272 165.186C13.3072 165.348 15.9571 165.184 19.481 164.591C27.4493 163.277 34.3818 159.824 39.6841 154.508C40.3652 153.82 40.8456 153.399 40.7398 153.575L40.5363 153.899L41.3506 153.453C42.5721 152.784 44.3178 152.618 45.6919 153.063C45.9771 153.148 45.9771 153.148 45.7082 152.933C45.2274 152.577 45.3305 152.457 45.8493 152.792C46.1073 152.952 46.3056 153.167 46.265 153.245C46.2406 153.335 46.2569 153.346 46.3166 153.292C46.3763 153.237 46.8922 153.416 47.4436 153.702C53.6794 156.847 59.9625 157.199 65.7661 154.736C68.0164 153.776 70.8336 151.84 72.6761 149.973C73.227 149.411 73.7371 148.927 73.8023 148.9C73.881 148.87 74.2637 148.666 74.6845 148.44C76.0118 147.736 77.9612 147.6 79.1941 148.116C79.4223 148.197 79.6477 148.265 79.6857 148.243C79.7237 148.222 80.1935 148.452 80.7367 148.768C84.7538 151.058 88.352 152.103 92.5279 152.156C94.453 152.18 97.852 151.528 99.7331 150.769C109.104 147.011 115.424 136.558 116.169 123.577C116.287 121.702 116.264 119.615 116.111 117.158C115.99 115.147 114.495 107.971 113.826 106.112C113.296 104.664 113.114 104.036 113.443 104.761C113.592 105.085 113.606 104.941 113.564 103.96C113.506 102.544 113.766 100.881 114.208 99.7747C114.387 99.329 114.569 98.8969 114.59 98.7936C114.628 98.7012 114.514 98.7665 114.324 98.9459C113.86 99.378 113.925 99.2802 115.103 97.8288C118.101 94.1188 120.092 90.1725 121.319 85.5172C122.275 81.9055 122.635 78.4841 122.453 74.6198C122.363 72.8997 121.548 68.2013 121.05 66.5628ZM109.161 49.0185C109.134 49.024 108.857 48.8392 108.545 48.6192L107.98 48.1954L108.588 48.554C109.139 48.9098 109.27 48.9968 109.161 49.0185ZM106.506 45.2119C106.46 45.1222 106.422 44.932 106.425 44.8043C106.438 44.6603 106.482 44.7363 106.525 44.9537C106.571 45.1847 106.563 45.2853 106.506 45.2119ZM79.6232 148.213C79.596 148.219 79.3652 148.053 79.0881 147.868L78.6046 147.499L79.1315 147.803C79.615 148.102 79.7318 148.192 79.6232 148.213ZM47.0382 6.26696C46.9378 6.32949 46.8807 6.32678 46.9051 6.2371C46.9295 6.14742 47.0136 6.07402 47.0951 6.0577C47.2851 6.01962 47.2635 6.12289 47.0382 6.26696ZM74.0356 148.655C73.7805 148.861 73.8131 148.813 74.3557 148.138C74.684 147.734 74.684 147.734 74.486 148.084C74.3721 148.291 74.1686 148.543 74.0356 148.655ZM43.7694 6.72421C43.7422 6.72966 43.6119 6.64272 43.4923 6.53949C43.2723 6.35746 43.2832 6.34116 43.5357 6.47426C43.7883 6.60736 43.878 6.70245 43.7694 6.72421ZM43.1447 6.42543C43.1176 6.43087 42.9872 6.34394 42.8677 6.2407C42.6476 6.05868 42.6585 6.04237 42.9111 6.17547C43.1637 6.30857 43.2533 6.40366 43.1447 6.42543ZM41.1549 153.111C40.9732 153.331 40.9569 153.32 41.0925 153.081C41.1603 152.926 41.2471 152.795 41.2742 152.79C41.3828 152.768 41.3367 152.89 41.1549 153.111Z" fill="#D9D9D9" fill-opacity="0.3"/>
</svg>
