<svg width="194" height="65" viewBox="0 0 194 65" fill="none" xmlns="http://www.w3.org/2000/svg">
<path d="M50.4848 14.3928C55.0883 18.9963 57.9468 25.2711 57.9468 32.0346C57.9468 38.8695 55.0883 45.006 50.4848 49.6072C45.8814 54.2085 39.6757 57 32.9122 57C26.0773 57 19.9408 54.2107 15.3396 49.6072C10.7383 45.0037 7.94678 38.8673 7.94678 32.0346C7.94678 25.2711 10.7361 18.994 15.3396 14.3928C19.943 9.79154 26.0795 7 32.9122 7C39.6757 7 45.8836 9.78931 50.4848 14.3928ZM35.7707 46.1217H35.9113C36.121 46.1217 36.3308 46.1909 36.4691 46.4006C36.6097 46.5412 36.748 46.6796 37.027 46.6796C37.0961 46.6796 37.1676 46.6104 37.1676 46.4698C37.1676 46.1909 37.2367 45.9119 37.2367 45.8428C37.3059 45.633 37.4465 45.633 37.5848 45.633C37.654 45.633 37.654 45.633 37.654 45.4924L37.5134 45.3519C37.4443 45.3519 37.3729 45.421 37.3729 45.4924C37.3037 45.5616 37.2323 45.633 37.1631 45.4924L36.7436 45.7714L36.2549 45.6308L35.4181 44.3745L35.697 42.5603C35.697 42.4911 35.6279 42.3506 35.4181 42.2814C35.2083 42.2122 35.2083 42.0716 35.2775 42.0025C34.9986 41.8619 34.6505 41.7235 34.231 41.7235C34.1618 41.7235 33.952 41.7927 33.6039 41.8641C33.2558 41.8641 33.0461 41.8641 33.0461 41.7235C33.0461 41.5138 33.2558 41.0965 33.3942 40.6078C33.4634 40.398 33.5348 40.0499 33.6039 39.9094C33.6039 39.7688 33.6731 39.6304 33.6731 39.6304L34.0212 38.7936L33.952 38.6531L33.4634 38.5839C33.3228 38.5839 32.8363 38.8628 32.486 39.1417C32.1379 39.5613 31.8589 39.9094 31.8589 40.1883L30.4643 40.4672C30.1854 40.4672 29.9064 40.398 29.6967 40.1191C29.6275 39.771 29.4177 39.3515 29.1388 38.9342C28.8599 38.5861 28.7907 38.2358 28.7907 37.8877C28.7907 37.4682 28.8599 36.9103 29.0005 36.5622C29.141 36.1427 29.141 35.6562 28.8599 35.2367C28.9291 35.2367 29.1388 35.0961 29.0005 34.9578L29.3486 34.5383L29.4177 34.4691L29.4869 34.5383C29.7659 34.3285 30.2545 34.2593 30.6718 34.3285C31.1605 34.3977 31.4394 34.1879 31.5778 33.8398L32.0665 34.3285C32.2071 34.3977 32.486 33.909 32.486 33.7707L32.2762 33.6301L33.5325 33.3511L33.6017 33.4917H34.1596L34.858 33.9112C34.9272 33.9112 34.9986 33.8421 35.0678 33.7707C35.2083 33.6301 35.2775 33.6301 35.3467 33.7015L35.9737 34.3999C35.9046 34.5405 35.9046 34.6788 35.9046 34.8194C35.9737 34.8886 36.0451 34.96 36.0451 35.0292C36.0451 35.3081 36.6722 36.5644 37.0225 36.5644C37.2323 36.5644 37.3014 36.4238 37.2323 36.1449V35.587C37.2323 35.2389 37.1631 34.8194 37.0225 34.4022C36.8128 34.054 36.6744 33.5654 36.5338 33.1458V33.0053C36.5338 32.7955 36.6744 32.5858 36.9533 32.4474C37.1631 32.3068 37.3014 32.1685 37.3014 32.1685C37.5112 32.0279 37.721 31.8204 37.9999 31.6798C38.2096 31.5392 38.4194 31.1911 38.5577 30.9813L38.7675 30.4927V30.2137H38.9773C38.9773 30.2137 39.1178 30.1446 39.1178 30.004C39.1178 30.004 39.0487 29.9348 38.9773 29.9348C38.9081 29.8656 38.6983 29.725 38.5577 29.5867L38.6983 29.4461C38.9081 29.2364 38.9773 28.7477 38.8389 28.5401L39.3968 28.2612C39.2562 28.5401 39.6757 28.6093 39.8163 28.5401L40.0952 27.9131C39.9546 27.565 39.8855 27.9131 40.0952 27.4936C40.305 27.4244 40.5147 27.353 40.7222 27.2147C40.932 27.1455 41.0704 27.0741 41.2801 27.0741C41.3493 27.0741 41.4207 27.1433 41.4207 27.1433C41.5613 27.1433 41.6304 27.0741 41.6304 27.0741C41.6304 26.8643 41.5613 26.726 41.4899 26.726L41.838 25.9584C42.1169 25.9584 42.3958 25.8178 42.5364 25.5388L43.0943 25.4697C43.2349 25.4697 43.304 25.4005 43.304 25.2599V25.1193L44.3506 24.8404L44.4912 24.4923L44.2122 24.0728C44.2122 24.0728 44.2814 24.0036 44.2814 23.9322C44.2814 23.8608 44.2122 23.7916 44.1408 23.7225C44.0716 23.7225 44.0002 23.6533 43.9311 23.6533C43.8619 23.5841 43.7905 23.5127 43.7213 23.5127H44.2792C44.2792 23.5127 44.5581 23.4435 44.5581 23.2338C44.5581 22.9548 44.4175 22.8857 44.1386 22.8857C43.371 22.8857 42.1861 23.1646 41.7666 24.0014L41.3471 24.2111L41.9049 23.6533L41.9741 23.5127C41.9741 23.4435 41.9049 23.3721 41.7643 23.3029H41.5546C42.253 23.3029 42.6703 23.0932 42.9492 22.8834C43.159 22.6737 43.3687 22.4639 43.8552 22.3256C44.3439 22.3947 44.8326 22.3947 45.319 22.3947C45.7385 22.3256 46.1558 22.3256 46.6445 22.3256C46.8543 22.185 47.1332 21.9061 47.2715 21.6271L47.97 21.558C48.1106 21.6985 48.597 21.3482 48.597 21.1384C48.597 20.9287 48.5278 20.8595 48.3181 20.7903C48.1083 20.7212 47.8986 20.5806 47.8986 20.3708V20.1611C47.9678 20.0919 47.8986 20.0205 47.8294 20.0205C47.5505 20.0205 46.852 20.3686 46.6445 20.5092C46.5039 20.6498 46.4347 20.44 46.4347 20.2994L46.5039 20.3686L46.7829 20.228L47.4813 19.9491L47.5505 19.8799C47.5505 19.601 47.131 19.5318 46.9926 19.5318C46.9234 19.5318 46.7829 19.601 46.6445 19.6724C46.5039 19.6724 46.3656 19.6724 46.3656 19.5318L46.4347 19.3912C45.9461 19.0431 45.5288 18.3447 45.5288 18.1349V17.856C45.598 17.7868 45.5288 17.7868 45.3882 17.7868H45.1784C45.1093 17.856 45.0379 17.7868 45.0379 17.6462C45.0379 17.5056 44.7589 16.7403 44.4108 16.7403L44.2011 16.95C44.2011 17.0906 44.1319 17.1598 43.9913 17.2289C43.8507 17.2981 43.7816 17.3695 43.7816 17.4387H43.7124L43.0139 17.8582C43.0139 17.7176 42.9448 17.7176 42.8734 17.789C42.8042 17.789 42.8042 17.8582 42.6636 17.8582H42.523C42.8711 17.8582 42.802 17.3695 42.523 17.3695L41.9652 17.4387C41.8246 17.4387 41.8246 17.4387 41.9652 17.2981C42.0343 17.1575 42.1749 17.0192 42.0343 16.8786C42.0343 16.738 41.9652 16.738 41.8938 16.8094L42.0343 16.5997C42.1749 16.5305 41.9652 16.2516 41.8246 16.111L41.1975 16.0418L40.778 15.6223C40.7089 15.6915 40.6375 15.6223 40.4991 15.5531C40.4299 15.484 40.2893 15.3434 40.2202 15.3434L39.7315 15.5531L38.4752 15.2742C38.3346 15.2742 38.1271 15.3434 38.1271 15.5531C38.1271 15.6223 38.1271 15.6937 38.1963 15.6937C38.3368 15.7629 38.3368 15.8343 38.3368 15.9035C38.3368 15.9726 38.406 16.2516 38.4774 16.6019C38.4774 16.95 38.4774 17.0906 38.2677 17.0214L37.9887 17.4409C37.9887 17.5815 38.1293 17.6507 38.1985 17.6507C38.4082 17.7913 38.618 17.9988 38.7563 18.2086C38.8969 18.3491 38.8969 18.5567 38.8255 18.7664L37.5 19.813V19.8821C37.5 20.0919 37.5 20.2302 37.5692 20.3708C37.7098 20.5114 37.7098 20.7189 37.8481 20.9287C38.1963 21.0693 38.1963 21.2076 37.9173 21.3482C37.7767 21.3482 37.6384 21.4174 37.4978 21.4888L37.3572 21.6294C37.3572 21.6985 37.2881 21.6985 37.2166 21.6985H36.8685C36.8685 21.6985 36.8685 21.6294 36.9377 21.6294C36.9377 21.6294 37.0069 21.5602 37.0069 21.4888L36.3799 21.1407L36.1009 20.652C36.1701 20.4422 36.1701 20.3039 36.1009 20.2325C36.0317 20.1611 36.0318 20.0227 36.0318 19.8844C36.0318 19.746 35.8912 19.3957 35.6122 19.3957C35.2641 19.3957 34.9852 19.4649 34.6349 19.5363C34.7754 19.4671 34.4943 19.1167 34.4251 19.1167C34.077 19.1167 33.6575 18.9762 33.1688 18.6972C32.6801 18.4183 32.332 18.2777 32.0531 18.2777C31.8433 18.2777 31.426 18.3469 31.1471 18.4875C31.2877 18.4183 31.2877 18.3469 31.3569 18.1394L30.9374 17.4409L30.8682 17.3718C30.7276 17.3718 30.5893 17.4409 30.4487 17.5815C30.3081 17.6507 30.1006 17.5815 30.1006 17.3026C30.1006 17.2334 30.1697 17.162 30.1697 17.162C30.2389 17.0928 30.2389 17.0928 30.1697 17.0214C30.1697 16.8117 30.2389 16.6019 30.4487 16.3944C30.5893 16.2538 30.6584 15.9749 30.7276 15.7673C30.8682 15.6982 30.8682 15.6268 30.8682 15.5576C30.8682 15.417 30.9374 15.417 31.0088 15.417C31.1493 15.417 31.3569 15.3478 31.4975 15.2764C31.638 15.1358 31.7764 15.0667 31.9861 15.0667L32.0553 14.8569C32.0553 14.7877 31.8456 14.7163 31.4283 14.6472C30.9396 14.578 30.7298 14.578 30.7298 14.4374L30.799 14.3682C31.2185 14.5088 31.5666 14.578 31.7764 14.578C32.1959 14.6472 32.4034 14.5088 32.8229 14.2991C32.9635 14.2299 33.3808 14.0893 33.7289 13.8795C33.7289 13.8104 33.6597 13.8104 33.45 13.739H33.7289L34.2176 13.46V13.1811L34.077 13.0405L34.7754 12.8999C34.7063 12.7594 34.8446 12.6902 34.916 12.6902C35.0566 12.6902 35.195 12.7594 35.3355 12.8999C35.4761 13.0405 35.5453 13.0405 35.6145 13.0405L36.2415 12.8308C36.2415 12.7616 36.3107 12.7616 36.4513 12.7616C36.5918 12.6924 36.661 12.621 36.5918 12.5518L36.1032 12.0631C35.9626 12.0631 35.8934 11.8534 36.034 11.8534C36.2437 11.8534 36.3821 11.7842 36.2437 11.5745C36.1032 11.5053 35.8956 11.3647 35.6859 11.2955C35.4761 11.155 35.2664 11.0858 35.0588 11.0858C34.9183 11.0858 34.6393 11.155 34.6393 11.3647C34.6393 11.5053 34.7085 11.5053 34.7799 11.5053C34.9205 11.5053 34.9897 11.5745 34.9897 11.6459C35.1302 11.715 35.0588 11.7865 34.9205 11.7865H34.7799C34.6393 11.7865 34.4318 11.927 34.2912 12.206C34.1506 12.4157 33.9431 12.6255 33.7334 12.6946C33.6642 12.6946 33.6642 12.6946 33.6642 12.6255C33.7334 12.5563 33.6642 12.5563 33.6642 12.4849C33.595 12.4157 33.5236 12.3443 33.4544 12.3443C33.3139 12.2751 33.1755 12.2751 33.1755 12.2037C33.1755 12.0631 33.3161 11.994 33.4544 11.7842C33.5236 11.5745 33.3139 11.5053 32.9657 11.5053C32.8252 11.5053 32.6868 11.5745 32.6176 11.715C32.5485 11.7842 32.4771 11.9248 32.4079 12.0631L31.7094 11.2955L31.1516 11.2264C31.1516 11.0858 31.2208 10.9474 31.2922 10.8068C31.4327 10.5279 30.8726 10.1798 30.6651 9.97005C30.5959 9.97005 30.4554 9.90088 30.317 9.90088C30.2478 9.90088 29.8283 10.249 29.5494 10.3896C29.4088 10.4587 29.3396 10.5301 29.3396 10.5993C29.3396 10.7399 29.4802 10.7399 29.6878 10.7399H29.6186C29.478 10.7399 29.4088 10.8091 29.4088 11.0188C29.4088 11.088 29.9667 11.2286 30.1073 11.2286C30.2478 11.2286 30.3862 11.2286 30.3862 11.2978C30.4554 11.3669 30.4554 11.3669 30.5959 11.3669L30.8057 11.2978V11.4383L30.7365 11.5789L30.8057 11.7887L30.1073 12.1368L30.0381 12.206C29.9689 12.206 29.8975 12.206 29.8975 12.2751C29.8975 12.3443 29.8975 12.4849 30.0381 12.6232C30.1073 12.7638 30.0381 12.833 29.69 12.833L29.4802 12.6924C29.4802 12.5518 29.3396 12.4135 28.9915 12.2729C28.3645 12.0631 27.2488 11.994 26.2714 11.994C25.7827 11.9248 25.4346 11.9248 25.1557 11.9248L24.1091 12.2729L24.3881 12.8308C24.3189 12.8308 24.1783 12.8999 24.1783 12.8999C23.8994 12.6902 23.4799 12.2729 23.3415 12.2729L22.8528 12.2037C21.3176 12.2729 19.5057 13.739 17.7629 15.4817C16.0201 17.2245 14.4849 19.177 13.7173 20.3641H13.8579C13.9985 20.3641 14.0676 20.295 14.2774 20.2235C14.418 20.1544 14.4871 20.2927 14.4871 20.5025C14.4871 20.6431 14.4871 20.7122 14.418 20.8506C14.3488 20.9889 14.4871 21.0603 14.7661 21.0603C14.8352 21.0603 14.9067 20.9912 14.9067 20.8506C14.9758 20.71 14.9758 20.71 14.9758 20.8506L15.1164 21.3393V21.4084C15.1164 21.4776 15.0472 21.549 14.9758 21.6182C14.7661 21.6874 14.9758 21.8971 15.1856 21.8971H15.5337L15.6743 21.828L15.7434 21.7588C15.7434 22.0377 16.0224 22.1069 16.2321 22.1069H16.3013C16.3013 22.1069 16.2321 22.2475 16.1607 22.3166C16.0201 22.3166 16.0201 22.3858 16.1607 22.4572L16.8592 22.5978V22.667L17.2787 23.5729C17.2787 23.7135 17.1381 24.0616 16.9998 24.0616C16.8614 24.0616 16.8592 23.9925 16.8592 23.9211C16.9283 23.9211 16.9283 23.8519 16.9283 23.7113C16.9283 23.6421 16.8592 23.5707 16.8592 23.5015C16.79 23.4324 16.6494 23.4324 16.3705 23.4324C16.3013 23.4324 16.0916 23.4324 16.2299 23.6421L16.578 24.4097L16.7186 24.5503C16.2991 24.5503 16.2299 25.945 16.2299 26.3645L16.2991 26.9223L16.3683 27.1321V27.2013L16.2991 27.8283L17.1359 29.223H17.3456C17.3456 29.2921 17.3456 29.3635 17.2765 29.4327C17.2073 29.5019 17.2073 29.5733 17.2073 29.7117L17.4862 29.9214C17.4862 30.3409 17.6268 30.4101 17.9749 30.7582C17.9749 30.968 18.2538 31.2469 18.6733 31.5258C19.162 31.7356 19.441 31.8739 19.5793 31.9453C19.8582 32.9227 20.3469 33.967 21.0431 34.5963L21.1123 35.0158L20.9717 35.1564C20.8311 35.1564 20.8311 35.2256 20.9026 35.297L21.4604 35.5759C21.601 35.4353 21.6702 35.5759 21.8085 35.7856C21.9491 36.0646 22.0183 36.2052 22.0874 36.2743V36.4841L22.4356 36.9728L22.5761 37.1134L22.7167 36.7653C22.5761 36.4171 22.0897 35.6495 21.6702 35.0225C21.4604 34.6744 21.2507 34.324 21.0431 34.0451C20.9025 33.8354 20.8334 33.697 20.8334 33.6256C20.8334 33.5542 20.7642 32.7888 20.6928 32.6482C20.762 32.7174 20.9717 32.7888 21.1123 32.858C21.3221 32.9272 21.5318 32.9986 21.6702 33.0677C21.7393 33.6256 21.9491 34.0451 22.2972 34.3932C22.5761 34.6722 22.8551 35.0203 23.0648 35.4398C22.9242 35.5804 23.2054 35.5804 23.3438 35.5804C23.4129 35.7209 23.4129 35.7901 23.4129 36.069C24.04 36.6961 25.2963 38.1621 25.2963 38.7892V38.8583L25.1557 39.2779C25.4346 39.9049 26.0617 40.3936 26.6909 40.6033H26.8315C27.1796 40.8131 27.6683 41.0229 28.157 41.2304C28.5765 41.5093 28.9938 41.7191 29.4133 41.8574L30.1117 41.4379C30.4598 41.5071 30.8793 41.8574 31.368 42.2747C31.8567 42.692 32.4838 43.1807 33.3205 43.3212C33.5995 43.1115 33.7401 43.1807 33.7401 43.4618V43.6024L34.5077 44.5084L34.6483 44.9279C35.0678 45.2068 35.5542 45.6263 35.764 46.1128L35.7707 46.1217ZM26.7757 11.0456L26.7065 10.905C26.566 10.8359 26.2179 10.6953 26.0795 10.6953C26.0103 10.6953 25.8697 10.7644 25.5908 10.8359C25.1021 11.1148 24.3345 11.3245 23.7767 11.6035C23.4977 11.7441 23.288 11.8132 23.1496 11.8132C23.4285 11.8132 23.7075 11.7441 23.9864 11.6035C24.1962 11.4629 24.4751 11.3937 24.754 11.3937L24.9638 11.5343C25.1044 11.6035 25.1735 11.6035 25.3119 11.6035C25.3811 11.6035 25.4525 11.6035 25.5908 11.7441C25.7314 11.6749 25.8697 11.6749 26.0795 11.8132L26.2893 11.6726V11.3937L26.2201 11.2531L26.3607 11.3223C26.5012 11.3223 26.6396 11.2531 26.7802 11.0434L26.7757 11.0456ZM37.3037 51.9078L37.3729 52.3274C37.3729 52.4679 37.3037 52.4679 37.2323 52.6063C37.0225 52.7469 36.6744 52.9544 36.6744 53.3739C36.6744 53.4431 36.7436 53.5145 36.7436 53.6528C36.8128 53.722 36.8842 53.7934 36.8842 53.9318C36.8842 54.0009 36.815 54.0723 36.815 54.1415C41.626 53.3047 45.9505 51.0041 49.2977 47.4472H49.2285C49.0879 47.5164 48.8804 47.5164 48.809 47.4472L48.5993 47.5164L48.2511 47.4472H48.0414C47.9008 47.2374 47.7625 47.0991 47.5527 46.9585L47.4835 46.8893C47.4144 46.8893 47.3429 46.8893 47.3429 47.0299C47.3429 46.4029 46.8543 45.845 46.2964 45.845C46.2964 45.9142 46.2272 45.9142 46.2272 45.9142H46.0866L45.9461 45.845H46.1558L46.2964 45.4255L45.9483 45.2157L45.8791 45.2849C45.6002 45.2157 45.3904 45.0752 45.2521 44.7962L45.0423 44.7271V44.7962L44.9017 44.8654C44.6228 44.9346 44.4131 45.006 44.2747 45.0752C43.9958 45.006 43.786 44.8654 43.7169 44.7962L42.8801 44.8654C42.8801 44.5865 42.7395 44.2384 42.3914 44.2384C41.9719 44.2384 41.414 44.2384 41.2756 44.7271C41.2756 44.8676 41.3448 45.0752 41.4162 45.1466V45.4255L41.3471 45.5661L41.2779 45.6352H41.2087L40.999 45.1466L41.2087 44.8676C41.1395 44.727 41.1395 44.6579 41.1395 44.5195C41.1395 44.3812 41.0704 44.3098 41.0704 44.1714L41.0012 44.1022H40.7914L40.3719 44.3812H40.093L40.0238 44.5218C39.9546 44.5218 39.9546 44.5909 39.9546 44.6623C39.9546 44.6623 39.8855 44.6623 39.8855 44.7315L39.8163 44.6623H39.5374C39.3968 44.8029 39.3276 45.0104 39.2584 45.2202L39.399 45.3608L39.0509 45.5014L38.9817 45.6419L38.772 45.7825V45.8517H38.7028V46.1998H38.6336C38.5644 45.9209 38.3547 45.6419 37.9352 45.4322H37.7254V45.5728C37.7254 45.7133 37.866 45.7825 38.0043 45.8517C38.1449 45.9923 38.2141 46.1306 38.2833 46.1998C38.2141 46.1306 38.0735 46.1998 38.0735 46.269V46.4096L38.493 47.0366V48.2215L38.6336 48.5004C38.493 48.8485 38.3547 49.1989 38.1449 49.4064V49.3372L38.0043 49.4064L37.9352 49.4756L37.866 49.7545L37.9352 49.8237V49.8928L37.7946 49.7523L37.7254 50.1718L37.3773 50.3124C37.2367 50.3815 37.1676 50.4529 37.2367 50.6605C37.2367 50.801 37.1676 50.8702 37.027 50.9394L37.0961 51.08L36.9556 51.2897C36.9556 51.3589 36.9556 51.4303 36.8864 51.4303V51.7092L36.9556 52.1979L37.0961 52.2671L37.2367 52.1979L37.3037 51.9078Z" fill="#0F3557"/>
<path d="M75.656 44.224C73.7573 44.224 72.0933 43.8507 70.664 43.104C69.256 42.336 68.1573 41.2907 67.368 39.968C66.6 38.6453 66.216 37.1413 66.216 35.456C66.216 33.7493 66.5893 32.2453 67.336 30.944C68.104 29.6213 69.1493 28.5867 70.472 27.84C71.816 27.0933 73.3413 26.72 75.048 26.72C76.712 26.72 78.1947 27.0827 79.496 27.808C80.7973 28.5333 81.8213 29.5573 82.568 30.88C83.3147 32.2027 83.688 33.76 83.688 35.552C83.688 35.7227 83.6773 35.9147 83.656 36.128C83.656 36.3413 83.6453 36.544 83.624 36.736H69.384V34.08H81.512L79.944 34.912C79.9653 33.9307 79.7627 33.0667 79.336 32.32C78.9093 31.5733 78.3227 30.9867 77.576 30.56C76.8507 30.1333 76.008 29.92 75.048 29.92C74.0667 29.92 73.2027 30.1333 72.456 30.56C71.7307 30.9867 71.1547 31.584 70.728 32.352C70.3227 33.0987 70.12 33.984 70.12 35.008V35.648C70.12 36.672 70.3547 37.5787 70.824 38.368C71.2933 39.1573 71.9547 39.7653 72.808 40.192C73.6613 40.6187 74.6427 40.832 75.752 40.832C76.712 40.832 77.576 40.6827 78.344 40.384C79.112 40.0853 79.7947 39.616 80.392 38.976L82.536 41.44C81.768 42.336 80.7973 43.0293 79.624 43.52C78.472 43.9893 77.1493 44.224 75.656 44.224ZM88.5542 44V21.6H98.3462C100.778 21.6 102.912 22.0693 104.746 23.008C106.581 23.9467 108.01 25.248 109.034 26.912C110.058 28.576 110.57 30.5387 110.57 32.8C110.57 35.04 110.058 37.0027 109.034 38.688C108.01 40.352 106.581 41.6533 104.746 42.592C102.912 43.5307 100.778 44 98.3462 44H88.5542ZM92.7142 40.48H98.1543C99.8396 40.48 101.29 40.16 102.506 39.52C103.744 38.88 104.693 37.984 105.354 36.832C106.037 35.68 106.378 34.336 106.378 32.8C106.378 31.2427 106.037 29.8987 105.354 28.768C104.693 27.616 103.744 26.72 102.506 26.08C101.29 25.44 99.8396 25.12 98.1543 25.12H92.7142V40.48ZM124.944 26.72C126.309 26.72 127.525 26.9867 128.592 27.52C129.68 28.0533 130.533 28.8747 131.152 29.984C131.77 31.072 132.08 32.48 132.08 34.208V44H128.08V34.72C128.08 33.2053 127.717 32.0747 126.992 31.328C126.288 30.5813 125.296 30.208 124.016 30.208C123.077 30.208 122.245 30.4 121.52 30.784C120.794 31.168 120.229 31.744 119.824 32.512C119.44 33.2587 119.248 34.208 119.248 35.36V44H115.248V20.256H119.248V31.52L118.384 30.112C118.981 29.024 119.845 28.192 120.976 27.616C122.128 27.0187 123.45 26.72 124.944 26.72ZM148.322 44V40.544L148.098 39.808V33.76C148.098 32.5867 147.746 31.68 147.042 31.04C146.338 30.3787 145.271 30.048 143.842 30.048C142.882 30.048 141.933 30.1973 140.994 30.496C140.077 30.7947 139.298 31.2107 138.658 31.744L137.09 28.832C138.007 28.128 139.095 27.6053 140.354 27.264C141.634 26.9013 142.957 26.72 144.322 26.72C146.797 26.72 148.706 27.3173 150.05 28.512C151.415 29.6853 152.098 31.5093 152.098 33.984V44H148.322ZM142.946 44.224C141.666 44.224 140.546 44.0107 139.586 43.584C138.626 43.136 137.879 42.528 137.346 41.76C136.834 40.9707 136.578 40.0853 136.578 39.104C136.578 38.144 136.802 37.28 137.25 36.512C137.719 35.744 138.477 35.136 139.522 34.688C140.567 34.24 141.954 34.016 143.682 34.016H148.642V36.672H143.97C142.605 36.672 141.687 36.896 141.218 37.344C140.749 37.7707 140.514 38.304 140.514 38.944C140.514 39.6693 140.802 40.2453 141.378 40.672C141.954 41.0987 142.754 41.312 143.778 41.312C144.759 41.312 145.634 41.088 146.402 40.64C147.191 40.192 147.757 39.5307 148.098 38.656L148.77 41.056C148.386 42.0587 147.693 42.8373 146.69 43.392C145.709 43.9467 144.461 44.224 142.946 44.224ZM157.871 44V26.912H161.679V31.616L161.231 30.24C161.743 29.088 162.543 28.2133 163.631 27.616C164.741 27.0187 166.117 26.72 167.759 26.72V30.528C167.589 30.4853 167.429 30.464 167.279 30.464C167.13 30.4427 166.981 30.432 166.831 30.432C165.317 30.432 164.111 30.88 163.215 31.776C162.319 32.6507 161.871 33.9627 161.871 35.712V44H157.871ZM178.85 44.224C176.972 44.224 175.522 43.744 174.498 42.784C173.474 41.8027 172.962 40.3627 172.962 38.464V23.136H176.962V38.368C176.962 39.1787 177.164 39.808 177.57 40.256C177.996 40.704 178.583 40.928 179.33 40.928C180.226 40.928 180.972 40.6933 181.57 40.224L182.69 43.072C182.22 43.456 181.644 43.744 180.962 43.936C180.279 44.128 179.575 44.224 178.85 44.224ZM170.146 30.24V27.04H181.538V30.24H170.146ZM186.62 44V26.912H190.62V44H186.62ZM188.636 24.096C187.89 24.096 187.271 23.8613 186.78 23.392C186.311 22.9227 186.076 22.3573 186.076 21.696C186.076 21.0133 186.311 20.448 186.78 20C187.271 19.5307 187.89 19.296 188.636 19.296C189.383 19.296 189.991 19.52 190.46 19.968C190.951 20.3947 191.196 20.9387 191.196 21.6C191.196 22.304 190.962 22.9013 190.492 23.392C190.023 23.8613 189.404 24.096 188.636 24.096Z" fill="#0F3557"/>
</svg>
