<?xml version="1.0" encoding="UTF-8"?>
<svg xmlns="http://www.w3.org/2000/svg" version="1.1" width="300" height="300" viewBox="0 0 300 300"><rect x="0" y="0" width="300" height="300" fill="#ffffff"/><g transform="scale(8.108)"><g transform="translate(0,0)"><path fill-rule="evenodd" d="M9 0L9 1L8 1L8 2L9 2L9 3L8 3L8 4L10 4L10 7L11 7L11 4L12 4L12 5L13 5L13 6L12 6L12 9L14 9L14 10L15 10L15 12L13 12L13 13L12 13L12 11L13 11L13 10L9 10L9 9L11 9L11 8L6 8L6 9L8 9L8 10L6 10L6 11L3 11L3 10L2 10L2 9L5 9L5 8L0 8L0 9L1 9L1 10L2 10L2 12L1 12L1 13L2 13L2 14L4 14L4 13L7 13L7 14L5 14L5 15L4 15L4 16L3 16L3 15L1 15L1 19L0 19L0 20L1 20L1 19L2 19L2 21L0 21L0 23L2 23L2 22L3 22L3 23L4 23L4 20L3 20L3 18L4 18L4 16L5 16L5 17L7 17L7 18L5 18L5 19L7 19L7 20L6 20L6 21L7 21L7 20L8 20L8 21L9 21L9 19L10 19L10 24L8 24L8 23L9 23L9 22L8 22L8 23L7 23L7 22L6 22L6 23L5 23L5 25L2 25L2 24L0 24L0 29L1 29L1 25L2 25L2 26L6 26L6 27L7 27L7 28L6 28L6 29L7 29L7 28L8 28L8 31L9 31L9 30L10 30L10 31L11 31L11 30L10 30L10 29L9 29L9 28L10 28L10 27L9 27L9 28L8 28L8 27L7 27L7 26L8 26L8 25L9 25L9 26L10 26L10 25L11 25L11 21L12 21L12 22L13 22L13 23L12 23L12 25L13 25L13 24L14 24L14 25L15 25L15 27L14 27L14 28L15 28L15 29L12 29L12 27L13 27L13 26L11 26L11 29L12 29L12 30L13 30L13 31L12 31L12 33L13 33L13 32L14 32L14 33L15 33L15 32L14 32L14 31L16 31L16 32L17 32L17 33L16 33L16 34L15 34L15 35L14 35L14 36L15 36L15 35L16 35L16 36L17 36L17 37L18 37L18 36L17 36L17 35L18 35L18 34L20 34L20 33L21 33L21 36L20 36L20 37L23 37L23 36L22 36L22 34L24 34L24 36L25 36L25 37L26 37L26 36L25 36L25 33L26 33L26 34L27 34L27 33L28 33L28 35L27 35L27 36L30 36L30 37L37 37L37 33L35 33L35 32L36 32L36 31L37 31L37 30L35 30L35 28L34 28L34 27L36 27L36 28L37 28L37 26L36 26L36 25L37 25L37 22L36 22L36 21L37 21L37 18L36 18L36 17L37 17L37 14L36 14L36 13L35 13L35 12L34 12L34 11L35 11L35 9L36 9L36 8L35 8L35 9L34 9L34 8L33 8L33 9L34 9L34 11L32 11L32 12L31 12L31 10L30 10L30 8L28 8L28 7L29 7L29 6L28 6L28 5L29 5L29 0L28 0L28 1L27 1L27 3L25 3L25 2L26 2L26 1L24 1L24 3L22 3L22 2L21 2L21 1L23 1L23 0L16 0L16 1L15 1L15 0L14 0L14 1L11 1L11 2L10 2L10 0ZM14 1L14 2L12 2L12 4L13 4L13 3L14 3L14 5L16 5L16 6L15 6L15 7L14 7L14 6L13 6L13 8L15 8L15 7L16 7L16 6L17 6L17 8L18 8L18 9L17 9L17 10L16 10L16 9L15 9L15 10L16 10L16 11L17 11L17 12L18 12L18 13L20 13L20 14L19 14L19 15L18 15L18 14L17 14L17 16L16 16L16 17L12 17L12 15L13 15L13 16L15 16L15 15L14 15L14 14L16 14L16 13L13 13L13 14L12 14L12 13L11 13L11 14L9 14L9 13L10 13L10 12L9 12L9 13L8 13L8 12L7 12L7 11L6 11L6 12L7 12L7 13L8 13L8 14L9 14L9 15L5 15L5 16L7 16L7 17L8 17L8 18L7 18L7 19L8 19L8 18L9 18L9 17L10 17L10 18L16 18L16 19L17 19L17 20L15 20L15 19L12 19L12 21L14 21L14 22L16 22L16 21L17 21L17 20L18 20L18 21L20 21L20 22L19 22L19 23L18 23L18 22L17 22L17 24L18 24L18 25L17 25L17 27L15 27L15 28L16 28L16 29L15 29L15 30L16 30L16 29L17 29L17 28L18 28L18 29L20 29L20 30L17 30L17 32L18 32L18 31L19 31L19 33L20 33L20 32L21 32L21 29L20 29L20 28L21 28L21 27L22 27L22 26L23 26L23 29L22 29L22 31L23 31L23 33L25 33L25 32L26 32L26 33L27 33L27 32L28 32L28 29L26 29L26 28L29 28L29 27L30 27L30 28L33 28L33 27L34 27L34 26L35 26L35 25L34 25L34 24L36 24L36 23L34 23L34 24L33 24L33 25L32 25L32 24L31 24L31 23L32 23L32 22L33 22L33 21L34 21L34 22L35 22L35 21L34 21L34 20L36 20L36 19L35 19L35 17L36 17L36 14L35 14L35 15L34 15L34 13L30 13L30 10L29 10L29 12L28 12L28 11L27 11L27 10L28 10L28 9L26 9L26 10L25 10L25 8L27 8L27 7L28 7L28 6L27 6L27 7L26 7L26 5L28 5L28 4L26 4L26 5L25 5L25 4L21 4L21 3L20 3L20 5L18 5L18 4L19 4L19 2L20 2L20 1L18 1L18 2L17 2L17 3L16 3L16 4L15 4L15 1ZM10 3L10 4L11 4L11 3ZM17 3L17 4L16 4L16 5L17 5L17 6L18 6L18 8L20 8L20 9L18 9L18 10L17 10L17 11L18 11L18 12L19 12L19 11L18 11L18 10L20 10L20 9L21 9L21 8L23 8L23 5L22 5L22 7L21 7L21 5L20 5L20 7L19 7L19 6L18 6L18 5L17 5L17 4L18 4L18 3ZM8 5L8 7L9 7L9 5ZM24 5L24 7L25 7L25 5ZM20 7L20 8L21 8L21 7ZM31 8L31 9L32 9L32 8ZM22 10L22 11L21 11L21 12L20 12L20 13L21 13L21 12L22 12L22 13L23 13L23 14L22 14L22 15L21 15L21 16L20 16L20 17L18 17L18 16L17 16L17 17L16 17L16 18L17 18L17 19L19 19L19 18L20 18L20 17L21 17L21 16L22 16L22 17L23 17L23 18L22 18L22 19L21 19L21 20L20 20L20 21L21 21L21 22L22 22L22 21L23 21L23 22L24 22L24 24L25 24L25 21L23 21L23 18L24 18L24 20L25 20L25 19L26 19L26 21L28 21L28 22L27 22L27 23L26 23L26 26L27 26L27 27L28 27L28 26L30 26L30 27L31 27L31 26L30 26L30 25L31 25L31 24L30 24L30 22L29 22L29 21L28 21L28 20L29 20L29 18L30 18L30 21L33 21L33 20L34 20L34 19L33 19L33 20L31 20L31 19L32 19L32 18L30 18L30 17L33 17L33 18L34 18L34 17L35 17L35 16L34 16L34 15L33 15L33 14L32 14L32 16L31 16L31 14L30 14L30 13L29 13L29 14L27 14L27 15L26 15L26 14L25 14L25 13L27 13L27 11L26 11L26 12L24 12L24 11L23 11L23 10ZM36 10L36 11L37 11L37 10ZM3 12L3 13L4 13L4 12ZM23 14L23 15L22 15L22 16L23 16L23 17L25 17L25 16L26 16L26 18L28 18L28 17L30 17L30 14L29 14L29 16L28 16L28 17L27 17L27 16L26 16L26 15L25 15L25 14ZM10 15L10 17L11 17L11 15ZM24 15L24 16L25 16L25 15ZM33 16L33 17L34 17L34 16ZM2 17L2 18L3 18L3 17ZM17 17L17 18L18 18L18 17ZM27 19L27 20L28 20L28 19ZM21 20L21 21L22 21L22 20ZM6 23L6 24L7 24L7 25L6 25L6 26L7 26L7 25L8 25L8 24L7 24L7 23ZM14 23L14 24L15 24L15 25L16 25L16 23ZM21 23L21 24L20 24L20 25L18 25L18 27L19 27L19 26L20 26L20 25L21 25L21 24L23 24L23 23ZM28 23L28 25L27 25L27 26L28 26L28 25L29 25L29 23ZM23 25L23 26L24 26L24 28L25 28L25 25ZM2 28L2 29L3 29L3 28ZM4 28L4 29L5 29L5 28ZM23 29L23 30L24 30L24 32L25 32L25 30L26 30L26 31L27 31L27 30L26 30L26 29ZM29 29L29 32L32 32L32 29ZM33 29L33 30L34 30L34 29ZM30 30L30 31L31 31L31 30ZM34 31L34 32L33 32L33 33L34 33L34 36L36 36L36 35L35 35L35 33L34 33L34 32L35 32L35 31ZM8 32L8 37L10 37L10 36L11 36L11 37L12 37L12 35L13 35L13 34L11 34L11 33L10 33L10 36L9 36L9 32ZM16 34L16 35L17 35L17 34ZM30 34L30 35L31 35L31 36L32 36L32 35L33 35L33 34ZM0 0L0 7L7 7L7 0ZM1 1L1 6L6 6L6 1ZM2 2L2 5L5 5L5 2ZM30 0L30 7L37 7L37 0ZM31 1L31 6L36 6L36 1ZM32 2L32 5L35 5L35 2ZM0 30L0 37L7 37L7 30ZM1 31L1 36L6 36L6 31ZM2 32L2 35L5 35L5 32Z" fill="#000000"/></g></g></svg>
