<?xml version="1.0" encoding="UTF-8"?>
<svg xmlns="http://www.w3.org/2000/svg" version="1.1" width="300" height="300" viewBox="0 0 300 300"><rect x="0" y="0" width="300" height="300" fill="#ffffff"/><g transform="scale(8.108)"><g transform="translate(0,0)"><path fill-rule="evenodd" d="M10 0L10 2L11 2L11 0ZM12 0L12 1L13 1L13 0ZM14 0L14 2L15 2L15 3L13 3L13 2L12 2L12 4L14 4L14 7L15 7L15 8L13 8L13 9L12 9L12 7L13 7L13 5L11 5L11 6L10 6L10 4L11 4L11 3L8 3L8 4L9 4L9 5L8 5L8 7L9 7L9 8L6 8L6 9L7 9L7 10L6 10L6 11L7 11L7 12L6 12L6 13L5 13L5 15L4 15L4 12L5 12L5 11L4 11L4 12L3 12L3 15L1 15L1 13L2 13L2 12L1 12L1 13L0 13L0 15L1 15L1 16L0 16L0 18L1 18L1 20L2 20L2 22L0 22L0 23L2 23L2 25L1 25L1 24L0 24L0 29L1 29L1 26L2 26L2 29L4 29L4 27L9 27L9 26L10 26L10 27L11 27L11 26L10 26L10 24L9 24L9 25L7 25L7 24L6 24L6 23L7 23L7 22L9 22L9 21L7 21L7 20L11 20L11 18L10 18L10 19L9 19L9 17L12 17L12 18L13 18L13 19L12 19L12 21L14 21L14 22L15 22L15 23L16 23L16 24L17 24L17 25L16 25L16 26L14 26L14 27L16 27L16 28L17 28L17 29L18 29L18 30L17 30L17 31L16 31L16 30L11 30L11 28L10 28L10 29L8 29L8 31L11 31L11 32L8 32L8 37L9 37L9 35L11 35L11 33L12 33L12 34L13 34L13 35L12 35L12 37L13 37L13 36L14 36L14 37L16 37L16 35L17 35L17 34L18 34L18 35L19 35L19 37L20 37L20 36L23 36L23 35L21 35L21 34L22 34L22 33L25 33L25 32L23 32L23 30L24 30L24 31L26 31L26 33L28 33L28 35L26 35L26 37L28 37L28 36L30 36L30 35L29 35L29 34L31 34L31 37L37 37L37 33L36 33L36 32L34 32L34 31L37 31L37 30L35 30L35 28L33 28L33 27L34 27L34 26L32 26L32 25L35 25L35 27L36 27L36 28L37 28L37 26L36 26L36 25L37 25L37 22L36 22L36 21L37 21L37 18L36 18L36 17L37 17L37 14L36 14L36 13L37 13L37 12L36 12L36 11L37 11L37 10L36 10L36 8L35 8L35 9L34 9L34 8L33 8L33 10L32 10L32 8L31 8L31 10L29 10L29 9L30 9L30 8L29 8L29 4L28 4L28 3L29 3L29 1L26 1L26 0L23 0L23 1L22 1L22 2L21 2L21 3L20 3L20 4L19 4L19 3L17 3L17 2L19 2L19 1L20 1L20 0L19 0L19 1L17 1L17 0L16 0L16 1L15 1L15 0ZM8 1L8 2L9 2L9 1ZM23 1L23 2L24 2L24 3L23 3L23 4L25 4L25 8L24 8L24 5L23 5L23 7L22 7L22 6L21 6L21 4L20 4L20 5L19 5L19 4L17 4L17 3L16 3L16 4L15 4L15 5L16 5L16 6L15 6L15 7L16 7L16 6L17 6L17 8L15 8L15 9L13 9L13 10L12 10L12 9L11 9L11 8L10 8L10 9L11 9L11 10L9 10L9 11L8 11L8 12L7 12L7 13L6 13L6 14L8 14L8 15L9 15L9 16L11 16L11 15L9 15L9 13L10 13L10 14L14 14L14 15L12 15L12 17L13 17L13 16L14 16L14 18L16 18L16 17L17 17L17 18L18 18L18 19L17 19L17 20L16 20L16 19L13 19L13 20L15 20L15 22L16 22L16 23L17 23L17 24L18 24L18 25L19 25L19 27L18 27L18 26L17 26L17 28L18 28L18 29L19 29L19 31L17 31L17 32L15 32L15 31L12 31L12 33L14 33L14 34L16 34L16 33L17 33L17 32L18 32L18 33L19 33L19 35L20 35L20 33L22 33L22 32L21 32L21 31L22 31L22 30L23 30L23 29L25 29L25 28L26 28L26 30L27 30L27 32L28 32L28 29L27 29L27 28L29 28L29 27L31 27L31 25L32 25L32 23L33 23L33 24L36 24L36 23L35 23L35 22L34 22L34 21L32 21L32 22L31 22L31 21L30 21L30 20L31 20L31 19L29 19L29 20L28 20L28 19L26 19L26 18L28 18L28 17L26 17L26 18L25 18L25 20L24 20L24 18L23 18L23 17L25 17L25 16L29 16L29 14L30 14L30 16L31 16L31 17L30 17L30 18L31 18L31 17L32 17L32 20L36 20L36 19L34 19L34 17L32 17L32 16L33 16L33 15L34 15L34 16L35 16L35 17L36 17L36 15L34 15L34 13L32 13L32 12L31 12L31 11L32 11L32 10L31 10L31 11L30 11L30 12L31 12L31 13L29 13L29 11L28 11L28 13L25 13L25 12L26 12L26 9L25 9L25 8L28 8L28 9L27 9L27 10L28 10L28 9L29 9L29 8L28 8L28 6L27 6L27 5L28 5L28 4L27 4L27 5L26 5L26 4L25 4L25 3L26 3L26 2L25 2L25 1ZM16 4L16 5L17 5L17 4ZM9 6L9 7L10 7L10 6ZM11 6L11 7L12 7L12 6ZM18 6L18 8L17 8L17 9L16 9L16 10L14 10L14 12L13 12L13 11L12 11L12 13L14 13L14 14L15 14L15 15L18 15L18 14L20 14L20 13L21 13L21 14L24 14L24 16L25 16L25 15L26 15L26 14L25 14L25 13L23 13L23 12L22 12L22 10L21 10L21 12L20 12L20 13L18 13L18 12L17 12L17 11L18 11L18 10L20 10L20 9L23 9L23 10L24 10L24 12L25 12L25 9L24 9L24 8L22 8L22 7L21 7L21 6L20 6L20 7L21 7L21 8L20 8L20 9L19 9L19 6ZM26 6L26 7L27 7L27 6ZM0 8L0 9L2 9L2 10L1 10L1 11L2 11L2 10L3 10L3 9L4 9L4 10L5 10L5 8ZM35 10L35 11L34 11L34 12L35 12L35 13L36 13L36 12L35 12L35 11L36 11L36 10ZM9 11L9 12L10 12L10 13L11 13L11 12L10 12L10 11ZM15 11L15 13L16 13L16 11ZM28 13L28 14L27 14L27 15L28 15L28 14L29 14L29 13ZM31 14L31 15L32 15L32 14ZM3 15L3 16L1 16L1 17L2 17L2 20L3 20L3 19L4 19L4 20L5 20L5 21L4 21L4 22L5 22L5 23L6 23L6 22L7 22L7 21L6 21L6 20L7 20L7 19L6 19L6 18L8 18L8 17L4 17L4 15ZM5 15L5 16L7 16L7 15ZM21 15L21 16L20 16L20 17L18 17L18 16L17 16L17 17L18 17L18 18L20 18L20 17L23 17L23 16L22 16L22 15ZM15 16L15 17L16 17L16 16ZM22 18L22 19L21 19L21 20L20 20L20 21L18 21L18 20L19 20L19 19L18 19L18 20L17 20L17 21L16 21L16 22L17 22L17 23L18 23L18 24L19 24L19 23L18 23L18 22L20 22L20 21L21 21L21 20L23 20L23 18ZM25 20L25 21L23 21L23 22L22 22L22 23L21 23L21 24L20 24L20 26L21 26L21 24L22 24L22 25L23 25L23 26L22 26L22 27L21 27L21 28L20 28L20 31L21 31L21 28L22 28L22 29L23 29L23 28L22 28L22 27L23 27L23 26L24 26L24 28L25 28L25 27L26 27L26 28L27 28L27 27L29 27L29 25L31 25L31 24L29 24L29 23L30 23L30 22L29 22L29 21L28 21L28 22L27 22L27 23L26 23L26 24L25 24L25 22L26 22L26 21L27 21L27 20ZM5 21L5 22L6 22L6 21ZM17 21L17 22L18 22L18 21ZM10 22L10 23L11 23L11 25L12 25L12 26L13 26L13 25L15 25L15 24L13 24L13 25L12 25L12 23L13 23L13 22ZM23 22L23 25L25 25L25 26L26 26L26 27L27 27L27 26L28 26L28 25L25 25L25 24L24 24L24 22ZM28 22L28 23L29 23L29 22ZM33 22L33 23L34 23L34 22ZM3 24L3 25L2 25L2 26L3 26L3 27L4 27L4 26L7 26L7 25L5 25L5 24ZM12 27L12 29L15 29L15 28L13 28L13 27ZM6 28L6 29L7 29L7 28ZM29 29L29 32L32 32L32 29ZM33 29L33 31L34 31L34 29ZM30 30L30 31L31 31L31 30ZM9 33L9 34L10 34L10 33ZM31 33L31 34L32 34L32 36L36 36L36 35L33 35L33 34L34 34L34 33L33 33L33 34L32 34L32 33ZM24 34L24 36L25 36L25 34ZM14 35L14 36L15 36L15 35ZM17 36L17 37L18 37L18 36ZM0 0L0 7L7 7L7 0ZM1 1L1 6L6 6L6 1ZM2 2L2 5L5 5L5 2ZM30 0L30 7L37 7L37 0ZM31 1L31 6L36 6L36 1ZM32 2L32 5L35 5L35 2ZM0 30L0 37L7 37L7 30ZM1 31L1 36L6 36L6 31ZM2 32L2 35L5 35L5 32Z" fill="#000000"/></g></g></svg>
