<?xml version="1.0" encoding="UTF-8"?>
<svg xmlns="http://www.w3.org/2000/svg" version="1.1" width="300" height="300" viewBox="0 0 300 300"><rect x="0" y="0" width="300" height="300" fill="#ffffff"/><g transform="scale(7.317)"><g transform="translate(0,0)"><path fill-rule="evenodd" d="M9 0L9 1L8 1L8 2L9 2L9 3L8 3L8 4L10 4L10 8L6 8L6 9L5 9L5 8L0 8L0 9L2 9L2 11L1 11L1 10L0 10L0 11L1 11L1 13L0 13L0 14L1 14L1 13L2 13L2 12L4 12L4 13L3 13L3 15L0 15L0 17L1 17L1 18L0 18L0 23L2 23L2 24L0 24L0 26L1 26L1 27L0 27L0 28L1 28L1 29L0 29L0 33L1 33L1 29L2 29L2 31L4 31L4 32L2 32L2 33L4 33L4 32L5 32L5 33L7 33L7 32L8 32L8 35L9 35L9 30L11 30L11 31L10 31L10 32L11 32L11 34L10 34L10 35L11 35L11 34L12 34L12 33L13 33L13 35L12 35L12 36L11 36L11 37L10 37L10 36L8 36L8 41L9 41L9 40L10 40L10 41L11 41L11 40L10 40L10 39L11 39L11 37L12 37L12 38L13 38L13 39L12 39L12 41L17 41L17 40L16 40L16 39L17 39L17 38L18 38L18 40L19 40L19 38L20 38L20 41L21 41L21 40L22 40L22 39L23 39L23 41L24 41L24 39L26 39L26 40L25 40L25 41L28 41L28 38L26 38L26 37L27 37L27 35L28 35L28 37L29 37L29 38L30 38L30 39L32 39L32 40L31 40L31 41L32 41L32 40L33 40L33 41L36 41L36 39L37 39L37 38L36 38L36 39L35 39L35 38L33 38L33 37L37 37L37 33L38 33L38 35L39 35L39 34L40 34L40 33L39 33L39 32L37 32L37 29L39 29L39 30L41 30L41 29L40 29L40 28L37 28L37 29L36 29L36 26L37 26L37 27L39 27L39 26L37 26L37 25L41 25L41 24L40 24L40 23L39 23L39 24L37 24L37 21L40 21L40 22L41 22L41 21L40 21L40 19L39 19L39 20L38 20L38 19L37 19L37 17L39 17L39 16L40 16L40 15L39 15L39 16L37 16L37 13L40 13L40 14L41 14L41 13L40 13L40 10L41 10L41 9L40 9L40 8L39 8L39 9L40 9L40 10L39 10L39 12L38 12L38 11L37 11L37 10L38 10L38 8L37 8L37 9L36 9L36 8L35 8L35 9L34 9L34 8L33 8L33 10L32 10L32 9L30 9L30 8L29 8L29 9L28 9L28 7L29 7L29 6L30 6L30 7L31 7L31 6L30 6L30 5L32 5L32 7L33 7L33 4L32 4L32 3L33 3L33 2L30 2L30 3L29 3L29 1L33 1L33 0L28 0L28 1L27 1L27 0L26 0L26 1L27 1L27 2L28 2L28 4L30 4L30 5L29 5L29 6L28 6L28 5L27 5L27 4L26 4L26 3L25 3L25 2L24 2L24 3L23 3L23 2L22 2L22 1L21 1L21 3L22 3L22 4L21 4L21 5L22 5L22 4L23 4L23 5L24 5L24 4L26 4L26 5L25 5L25 6L24 6L24 7L23 7L23 6L22 6L22 7L21 7L21 6L20 6L20 7L19 7L19 5L20 5L20 4L19 4L19 5L18 5L18 8L17 8L17 9L16 9L16 7L17 7L17 5L16 5L16 4L18 4L18 3L19 3L19 2L18 2L18 0L16 0L16 1L14 1L14 0L13 0L13 1L11 1L11 4L10 4L10 0ZM19 0L19 1L20 1L20 0ZM23 0L23 1L24 1L24 0ZM14 2L14 3L12 3L12 4L11 4L11 8L10 8L10 9L9 9L9 10L10 10L10 11L11 11L11 12L12 12L12 10L10 10L10 9L11 9L11 8L12 8L12 9L13 9L13 13L10 13L10 12L9 12L9 11L8 11L8 10L7 10L7 9L6 9L6 10L5 10L5 11L4 11L4 12L5 12L5 13L4 13L4 14L5 14L5 13L6 13L6 14L7 14L7 13L8 13L8 15L6 15L6 16L7 16L7 17L5 17L5 16L4 16L4 17L3 17L3 16L2 16L2 18L1 18L1 20L4 20L4 22L5 22L5 20L4 20L4 17L5 17L5 19L6 19L6 20L7 20L7 21L6 21L6 22L7 22L7 23L4 23L4 26L5 26L5 28L7 28L7 29L6 29L6 30L7 30L7 31L6 31L6 32L7 32L7 31L8 31L8 30L7 30L7 29L10 29L10 28L9 28L9 27L6 27L6 26L8 26L8 25L9 25L9 24L8 24L8 25L5 25L5 24L7 24L7 23L8 23L8 22L7 22L7 21L8 21L8 20L9 20L9 19L12 19L12 21L11 21L11 20L10 20L10 21L11 21L11 23L10 23L10 24L11 24L11 25L10 25L10 27L12 27L12 28L13 28L13 29L11 29L11 30L14 30L14 31L12 31L12 32L15 32L15 33L20 33L20 34L18 34L18 35L19 35L19 36L17 36L17 34L16 34L16 35L14 35L14 36L12 36L12 37L13 37L13 38L14 38L14 39L13 39L13 40L14 40L14 39L15 39L15 37L14 37L14 36L17 36L17 37L16 37L16 38L17 38L17 37L20 37L20 36L21 36L21 38L23 38L23 39L24 39L24 38L25 38L25 36L26 36L26 35L25 35L25 36L24 36L24 34L25 34L25 32L26 32L26 34L28 34L28 35L29 35L29 36L30 36L30 33L31 33L31 34L32 34L32 33L31 33L31 32L36 32L36 29L35 29L35 28L33 28L33 27L35 27L35 26L31 26L31 28L30 28L30 25L29 25L29 29L28 29L28 27L27 27L27 26L28 26L28 25L24 25L24 24L26 24L26 23L25 23L25 22L28 22L28 24L30 24L30 23L32 23L32 24L31 24L31 25L32 25L32 24L33 24L33 25L37 25L37 24L36 24L36 21L37 21L37 19L36 19L36 18L35 18L35 19L36 19L36 21L35 21L35 20L34 20L34 18L33 18L33 20L32 20L32 18L31 18L31 16L32 16L32 17L33 17L33 16L34 16L34 17L37 17L37 16L34 16L34 14L33 14L33 15L32 15L32 14L30 14L30 15L29 15L29 13L35 13L35 15L36 15L36 13L37 13L37 12L34 12L34 10L33 10L33 11L32 11L32 10L30 10L30 11L29 11L29 10L28 10L28 9L24 9L24 8L21 8L21 7L20 7L20 8L19 8L19 9L17 9L17 11L15 11L15 10L16 10L16 9L15 9L15 10L14 10L14 9L13 9L13 8L15 8L15 7L16 7L16 6L15 6L15 7L14 7L14 6L13 6L13 7L12 7L12 5L13 5L13 4L14 4L14 5L15 5L15 4L16 4L16 2ZM17 2L17 3L18 3L18 2ZM14 3L14 4L15 4L15 3ZM8 5L8 7L9 7L9 5ZM26 5L26 6L25 6L25 8L27 8L27 7L28 7L28 6L27 6L27 5ZM26 6L26 7L27 7L27 6ZM20 8L20 9L19 9L19 10L18 10L18 12L17 12L17 13L16 13L16 12L15 12L15 11L14 11L14 12L15 12L15 13L14 13L14 14L9 14L9 15L8 15L8 16L10 16L10 17L11 17L11 18L12 18L12 19L13 19L13 20L14 20L14 21L15 21L15 22L14 22L14 24L13 24L13 23L12 23L12 25L11 25L11 26L12 26L12 25L14 25L14 26L15 26L15 27L14 27L14 28L15 28L15 27L16 27L16 28L17 28L17 27L18 27L18 30L21 30L21 31L20 31L20 33L23 33L23 34L21 34L21 36L22 36L22 37L23 37L23 38L24 38L24 37L23 37L23 36L22 36L22 35L23 35L23 34L24 34L24 33L23 33L23 32L24 32L24 31L25 31L25 30L24 30L24 29L27 29L27 27L26 27L26 26L25 26L25 27L26 27L26 28L24 28L24 29L23 29L23 26L24 26L24 25L23 25L23 23L22 23L22 22L24 22L24 21L23 21L23 20L25 20L25 21L29 21L29 20L27 20L27 19L29 19L29 17L30 17L30 16L28 16L28 14L27 14L27 13L29 13L29 11L28 11L28 10L26 10L26 11L27 11L27 12L26 12L26 14L27 14L27 15L26 15L26 16L25 16L25 14L24 14L24 12L23 12L23 10L24 10L24 11L25 11L25 10L24 10L24 9L23 9L23 10L22 10L22 11L21 11L21 12L20 12L20 13L18 13L18 12L19 12L19 10L20 10L20 9L21 9L21 8ZM3 9L3 10L4 10L4 9ZM6 10L6 11L5 11L5 12L6 12L6 13L7 13L7 12L8 12L8 13L9 13L9 12L8 12L8 11L7 11L7 10ZM35 10L35 11L36 11L36 10ZM6 11L6 12L7 12L7 11ZM21 12L21 15L22 15L22 14L23 14L23 15L24 15L24 14L23 14L23 13L22 13L22 12ZM17 13L17 14L15 14L15 15L12 15L12 16L15 16L15 17L14 17L14 18L16 18L16 17L17 17L17 20L18 20L18 21L21 21L21 19L22 19L22 20L23 20L23 19L24 19L24 18L25 18L25 17L24 17L24 16L23 16L23 17L20 17L20 14L18 14L18 13ZM17 14L17 15L16 15L16 16L17 16L17 17L18 17L18 18L20 18L20 17L19 17L19 15L18 15L18 14ZM17 15L17 16L18 16L18 15ZM23 17L23 18L22 18L22 19L23 19L23 18L24 18L24 17ZM26 17L26 18L28 18L28 17ZM2 18L2 19L3 19L3 18ZM6 18L6 19L7 19L7 20L8 20L8 19L7 19L7 18ZM30 18L30 19L31 19L31 18ZM14 19L14 20L15 20L15 21L16 21L16 22L17 22L17 21L16 21L16 19ZM18 19L18 20L19 20L19 19ZM25 19L25 20L26 20L26 19ZM1 21L1 22L2 22L2 23L3 23L3 21ZM12 21L12 22L13 22L13 21ZM31 21L31 22L32 22L32 23L33 23L33 24L35 24L35 21ZM18 22L18 23L16 23L16 25L15 25L15 26L18 26L18 27L19 27L19 29L20 29L20 28L21 28L21 29L22 29L22 32L23 32L23 31L24 31L24 30L23 30L23 29L22 29L22 28L21 28L21 27L22 27L22 25L20 25L20 23L21 23L21 22ZM29 22L29 23L30 23L30 22ZM33 22L33 23L34 23L34 22ZM2 24L2 25L3 25L3 24ZM19 25L19 26L20 26L20 25ZM3 27L3 30L4 30L4 27ZM31 28L31 30L32 30L32 31L33 31L33 30L34 30L34 31L35 31L35 29L32 29L32 28ZM14 29L14 30L17 30L17 29ZM29 29L29 31L30 31L30 32L29 32L29 33L30 33L30 32L31 32L31 31L30 31L30 29ZM26 30L26 32L27 32L27 33L28 33L28 30ZM16 31L16 32L17 32L17 31ZM18 31L18 32L19 32L19 31ZM40 31L40 32L41 32L41 31ZM33 33L33 36L36 36L36 33ZM34 34L34 35L35 35L35 34ZM40 35L40 38L41 38L41 35ZM31 36L31 37L30 37L30 38L31 38L31 37L32 37L32 36ZM38 36L38 37L39 37L39 36ZM9 38L9 39L10 39L10 38ZM33 39L33 40L35 40L35 39ZM39 39L39 40L37 40L37 41L39 41L39 40L40 40L40 39ZM29 40L29 41L30 41L30 40ZM0 0L0 7L7 7L7 0ZM1 1L1 6L6 6L6 1ZM2 2L2 5L5 5L5 2ZM34 0L34 7L41 7L41 0ZM35 1L35 6L40 6L40 1ZM36 2L36 5L39 5L39 2ZM0 34L0 41L7 41L7 34ZM1 35L1 40L6 40L6 35ZM2 36L2 39L5 39L5 36Z" fill="#000000"/></g></g></svg>
