<?xml version="1.0" encoding="UTF-8"?>
<svg xmlns="http://www.w3.org/2000/svg" version="1.1" width="300" height="300" viewBox="0 0 300 300"><rect x="0" y="0" width="300" height="300" fill="#ffffff"/><g transform="scale(7.317)"><g transform="translate(0,0)"><path fill-rule="evenodd" d="M10 0L10 1L11 1L11 0ZM12 0L12 1L13 1L13 2L11 2L11 4L10 4L10 2L9 2L9 1L8 1L8 2L9 2L9 3L8 3L8 4L9 4L9 5L8 5L8 7L9 7L9 5L10 5L10 9L9 9L9 8L6 8L6 9L7 9L7 10L5 10L5 8L0 8L0 10L3 10L3 9L4 9L4 10L5 10L5 11L4 11L4 14L3 14L3 13L2 13L2 14L1 14L1 13L0 13L0 17L3 17L3 16L4 16L4 17L5 17L5 18L6 18L6 19L7 19L7 18L9 18L9 19L8 19L8 20L6 20L6 21L7 21L7 22L6 22L6 23L7 23L7 22L9 22L9 23L11 23L11 21L12 21L12 22L13 22L13 21L12 21L12 19L13 19L13 20L14 20L14 21L15 21L15 22L14 22L14 24L13 24L13 23L12 23L12 25L11 25L11 24L9 24L9 25L7 25L7 24L6 24L6 25L7 25L7 26L4 26L4 27L5 27L5 28L4 28L4 30L3 30L3 31L2 31L2 33L3 33L3 32L4 32L4 33L8 33L8 35L9 35L9 36L8 36L8 41L9 41L9 40L11 40L11 37L12 37L12 38L13 38L13 39L12 39L12 41L16 41L16 39L17 39L17 38L16 38L16 37L17 37L17 36L19 36L19 35L18 35L18 33L15 33L15 32L12 32L12 31L14 31L14 30L17 30L17 31L16 31L16 32L17 32L17 31L18 31L18 30L21 30L21 31L20 31L20 33L19 33L19 34L20 34L20 33L23 33L23 34L21 34L21 36L20 36L20 37L18 37L18 40L19 40L19 38L20 38L20 41L21 41L21 40L22 40L22 39L23 39L23 41L24 41L24 39L26 39L26 40L25 40L25 41L28 41L28 38L26 38L26 37L27 37L27 35L28 35L28 37L29 37L29 38L30 38L30 39L32 39L32 40L31 40L31 41L32 41L32 40L33 40L33 41L36 41L36 39L37 39L37 38L36 38L36 39L35 39L35 38L33 38L33 37L37 37L37 33L38 33L38 35L39 35L39 34L40 34L40 33L39 33L39 32L37 32L37 29L39 29L39 30L41 30L41 29L40 29L40 28L37 28L37 29L36 29L36 26L37 26L37 27L39 27L39 26L37 26L37 25L41 25L41 24L40 24L40 23L39 23L39 24L37 24L37 21L40 21L40 22L41 22L41 21L40 21L40 19L39 19L39 20L38 20L38 19L37 19L37 17L39 17L39 16L40 16L40 15L39 15L39 16L37 16L37 15L35 15L35 13L29 13L29 11L30 11L30 10L32 10L32 11L33 11L33 10L34 10L34 12L37 12L37 13L36 13L36 14L37 14L37 13L40 13L40 14L41 14L41 13L40 13L40 10L41 10L41 9L40 9L40 8L39 8L39 9L40 9L40 10L39 10L39 12L38 12L38 11L37 11L37 10L38 10L38 8L37 8L37 9L36 9L36 8L35 8L35 9L34 9L34 8L33 8L33 10L32 10L32 9L30 9L30 8L29 8L29 9L28 9L28 7L29 7L29 6L30 6L30 7L31 7L31 6L30 6L30 5L32 5L32 7L33 7L33 4L32 4L32 3L33 3L33 2L30 2L30 3L29 3L29 1L33 1L33 0L28 0L28 1L27 1L27 0L26 0L26 1L27 1L27 2L28 2L28 4L30 4L30 5L29 5L29 6L28 6L28 5L27 5L27 4L26 4L26 3L25 3L25 2L24 2L24 3L23 3L23 2L22 2L22 1L21 1L21 3L22 3L22 4L21 4L21 5L22 5L22 4L23 4L23 5L24 5L24 4L26 4L26 5L25 5L25 6L24 6L24 7L23 7L23 6L22 6L22 7L21 7L21 6L20 6L20 7L19 7L19 5L20 5L20 4L19 4L19 5L18 5L18 8L17 8L17 9L16 9L16 7L17 7L17 5L16 5L16 4L18 4L18 3L19 3L19 2L18 2L18 0L16 0L16 1L14 1L14 0ZM19 0L19 1L20 1L20 0ZM23 0L23 1L24 1L24 0ZM14 2L14 3L13 3L13 4L14 4L14 5L15 5L15 4L16 4L16 2ZM17 2L17 3L18 3L18 2ZM14 3L14 4L15 4L15 3ZM11 4L11 7L12 7L12 6L13 6L13 8L15 8L15 7L16 7L16 6L15 6L15 7L14 7L14 6L13 6L13 5L12 5L12 4ZM26 5L26 6L25 6L25 8L27 8L27 7L28 7L28 6L27 6L27 5ZM26 6L26 7L27 7L27 6ZM20 7L20 8L19 8L19 9L17 9L17 11L15 11L15 10L16 10L16 9L15 9L15 10L14 10L14 9L12 9L12 8L11 8L11 9L10 9L10 10L9 10L9 9L8 9L8 10L7 10L7 11L6 11L6 12L7 12L7 13L5 13L5 14L4 14L4 16L5 16L5 15L6 15L6 16L7 16L7 17L6 17L6 18L7 18L7 17L9 17L9 18L10 18L10 15L9 15L9 16L8 16L8 15L6 15L6 14L8 14L8 11L9 11L9 13L11 13L11 14L14 14L14 13L15 13L15 12L16 12L16 13L17 13L17 14L15 14L15 15L12 15L12 16L15 16L15 17L14 17L14 18L16 18L16 17L17 17L17 20L18 20L18 21L21 21L21 19L22 19L22 20L23 20L23 21L24 21L24 22L22 22L22 23L23 23L23 25L24 25L24 26L23 26L23 29L22 29L22 28L21 28L21 27L22 27L22 25L20 25L20 23L21 23L21 22L18 22L18 23L16 23L16 25L15 25L15 26L14 26L14 25L12 25L12 26L11 26L11 25L10 25L10 27L9 27L9 26L8 26L8 28L10 28L10 27L12 27L12 28L13 28L13 29L10 29L10 30L9 30L9 29L6 29L6 28L7 28L7 27L6 27L6 28L5 28L5 29L6 29L6 30L9 30L9 31L5 31L5 32L9 32L9 34L10 34L10 35L11 35L11 36L9 36L9 37L11 37L11 36L12 36L12 37L13 37L13 38L14 38L14 39L13 39L13 40L14 40L14 39L15 39L15 37L16 37L16 35L17 35L17 34L16 34L16 35L14 35L14 36L12 36L12 35L13 35L13 33L12 33L12 34L10 34L10 33L11 33L11 32L9 32L9 31L11 31L11 30L14 30L14 29L15 29L15 28L16 28L16 29L17 29L17 30L18 30L18 27L19 27L19 29L20 29L20 28L21 28L21 29L22 29L22 32L23 32L23 33L24 33L24 34L23 34L23 35L22 35L22 36L21 36L21 38L23 38L23 39L24 39L24 38L25 38L25 36L26 36L26 35L25 35L25 36L24 36L24 34L25 34L25 32L26 32L26 34L28 34L28 35L29 35L29 36L30 36L30 33L31 33L31 34L32 34L32 33L31 33L31 32L36 32L36 29L35 29L35 28L33 28L33 27L35 27L35 26L31 26L31 28L30 28L30 25L29 25L29 29L28 29L28 27L27 27L27 26L28 26L28 25L24 25L24 24L26 24L26 23L25 23L25 22L28 22L28 24L30 24L30 23L32 23L32 24L31 24L31 25L32 25L32 24L33 24L33 25L37 25L37 24L36 24L36 21L37 21L37 19L36 19L36 18L35 18L35 19L36 19L36 21L35 21L35 20L34 20L34 18L33 18L33 20L32 20L32 18L31 18L31 16L32 16L32 17L33 17L33 16L34 16L34 17L37 17L37 16L34 16L34 14L33 14L33 15L32 15L32 14L30 14L30 15L29 15L29 13L27 13L27 14L26 14L26 12L27 12L27 11L24 11L24 10L28 10L28 11L29 11L29 10L28 10L28 9L24 9L24 8L21 8L21 7ZM20 8L20 9L19 9L19 10L18 10L18 12L17 12L17 13L18 13L18 15L19 15L19 14L20 14L20 17L19 17L19 16L17 16L17 15L16 15L16 16L17 16L17 17L18 17L18 18L20 18L20 17L23 17L23 18L22 18L22 19L23 19L23 20L25 20L25 21L29 21L29 20L27 20L27 19L29 19L29 17L30 17L30 16L28 16L28 14L27 14L27 15L26 15L26 16L25 16L25 14L24 14L24 12L23 12L23 10L24 10L24 9L23 9L23 10L22 10L22 11L21 11L21 12L20 12L20 13L18 13L18 12L19 12L19 10L20 10L20 9L21 9L21 8ZM11 9L11 11L13 11L13 10L12 10L12 9ZM35 10L35 11L36 11L36 10ZM0 11L0 12L2 12L2 11ZM14 11L14 12L15 12L15 11ZM12 12L12 13L13 13L13 12ZM21 12L21 15L22 15L22 14L23 14L23 15L24 15L24 14L23 14L23 13L22 13L22 12ZM2 15L2 16L3 16L3 15ZM23 16L23 17L24 17L24 18L23 18L23 19L24 19L24 18L25 18L25 17L24 17L24 16ZM26 17L26 18L28 18L28 17ZM1 18L1 19L0 19L0 22L1 22L1 20L2 20L2 23L0 23L0 24L1 24L1 26L0 26L0 33L1 33L1 29L2 29L2 27L3 27L3 26L2 26L2 25L3 25L3 24L4 24L4 25L5 25L5 24L4 24L4 22L3 22L3 20L2 20L2 19L3 19L3 18ZM11 18L11 19L12 19L12 18ZM30 18L30 19L31 19L31 18ZM9 19L9 20L8 20L8 21L10 21L10 19ZM14 19L14 20L15 20L15 21L16 21L16 22L17 22L17 21L16 21L16 19ZM18 19L18 20L19 20L19 19ZM25 19L25 20L26 20L26 19ZM4 20L4 21L5 21L5 20ZM31 21L31 22L32 22L32 23L33 23L33 24L35 24L35 21ZM29 22L29 23L30 23L30 22ZM33 22L33 23L34 23L34 22ZM19 25L19 26L20 26L20 25ZM1 26L1 27L2 27L2 26ZM15 26L15 27L14 27L14 28L15 28L15 27L16 27L16 28L17 28L17 27L18 27L18 26ZM25 26L25 27L26 27L26 28L24 28L24 29L23 29L23 30L24 30L24 31L23 31L23 32L24 32L24 31L25 31L25 30L24 30L24 29L27 29L27 27L26 27L26 26ZM31 28L31 30L32 30L32 31L33 31L33 30L34 30L34 31L35 31L35 29L32 29L32 28ZM29 29L29 31L30 31L30 32L29 32L29 33L30 33L30 32L31 32L31 31L30 31L30 29ZM26 30L26 32L27 32L27 33L28 33L28 30ZM40 31L40 32L41 32L41 31ZM33 33L33 36L36 36L36 33ZM34 34L34 35L35 35L35 34ZM40 35L40 38L41 38L41 35ZM14 36L14 37L15 37L15 36ZM22 36L22 37L23 37L23 38L24 38L24 37L23 37L23 36ZM31 36L31 37L30 37L30 38L31 38L31 37L32 37L32 36ZM38 36L38 37L39 37L39 36ZM33 39L33 40L35 40L35 39ZM39 39L39 40L37 40L37 41L39 41L39 40L40 40L40 39ZM29 40L29 41L30 41L30 40ZM0 0L0 7L7 7L7 0ZM1 1L1 6L6 6L6 1ZM2 2L2 5L5 5L5 2ZM34 0L34 7L41 7L41 0ZM35 1L35 6L40 6L40 1ZM36 2L36 5L39 5L39 2ZM0 34L0 41L7 41L7 34ZM1 35L1 40L6 40L6 35ZM2 36L2 39L5 39L5 36Z" fill="#000000"/></g></g></svg>
