<?xml version="1.0" encoding="UTF-8"?>
<svg xmlns="http://www.w3.org/2000/svg" version="1.1" width="300" height="300" viewBox="0 0 300 300"><rect x="0" y="0" width="300" height="300" fill="#ffffff"/><g transform="scale(8.108)"><g transform="translate(0,0)"><path fill-rule="evenodd" d="M9 0L9 3L8 3L8 5L9 5L9 6L8 6L8 7L9 7L9 9L8 9L8 8L5 8L5 9L4 9L4 10L3 10L3 9L2 9L2 8L0 8L0 9L1 9L1 11L0 11L0 14L1 14L1 15L2 15L2 16L0 16L0 17L3 17L3 18L4 18L4 19L2 19L2 20L0 20L0 22L1 22L1 21L5 21L5 17L3 17L3 16L4 16L4 15L5 15L5 16L6 16L6 17L7 17L7 18L6 18L6 19L7 19L7 18L8 18L8 17L9 17L9 16L6 16L6 15L7 15L7 14L8 14L8 15L10 15L10 18L11 18L11 19L12 19L12 17L11 17L11 16L13 16L13 12L12 12L12 11L13 11L13 10L12 10L12 9L11 9L11 8L10 8L10 7L11 7L11 5L12 5L12 8L13 8L13 9L14 9L14 8L13 8L13 5L12 5L12 4L14 4L14 5L15 5L15 3L16 3L16 2L15 2L15 3L12 3L12 4L11 4L11 3L10 3L10 2L11 2L11 0ZM13 0L13 1L12 1L12 2L13 2L13 1L14 1L14 0ZM16 0L16 1L18 1L18 2L19 2L19 1L18 1L18 0ZM20 0L20 1L21 1L21 3L23 3L23 0L22 0L22 1L21 1L21 0ZM24 0L24 1L25 1L25 2L24 2L24 3L25 3L25 4L21 4L21 5L22 5L22 7L23 7L23 5L24 5L24 8L25 8L25 9L23 9L23 8L20 8L20 9L19 9L19 5L20 5L20 4L19 4L19 3L17 3L17 4L19 4L19 5L18 5L18 8L15 8L15 11L14 11L14 14L15 14L15 15L14 15L14 17L13 17L13 18L15 18L15 19L14 19L14 20L12 20L12 21L11 21L11 20L9 20L9 21L11 21L11 22L9 22L9 23L10 23L10 24L9 24L9 26L10 26L10 24L11 24L11 26L12 26L12 27L15 27L15 28L13 28L13 29L15 29L15 30L14 30L14 33L13 33L13 32L12 32L12 33L11 33L11 31L12 31L12 29L11 29L11 31L10 31L10 30L9 30L9 29L10 29L10 28L11 28L11 27L8 27L8 23L7 23L7 22L6 22L6 23L4 23L4 22L2 22L2 24L1 24L1 23L0 23L0 24L1 24L1 25L0 25L0 29L1 29L1 26L2 26L2 25L3 25L3 24L4 24L4 25L5 25L5 26L3 26L3 27L2 27L2 29L3 29L3 28L5 28L5 29L8 29L8 32L9 32L9 31L10 31L10 33L9 33L9 34L10 34L10 33L11 33L11 34L12 34L12 35L14 35L14 36L15 36L15 37L17 37L17 36L15 36L15 35L17 35L17 34L18 34L18 35L19 35L19 36L20 36L20 37L21 37L21 34L20 34L20 35L19 35L19 33L18 33L18 32L17 32L17 30L16 30L16 29L15 29L15 28L16 28L16 27L17 27L17 26L18 26L18 27L19 27L19 25L20 25L20 26L22 26L22 29L21 29L21 27L20 27L20 30L19 30L19 29L18 29L18 28L17 28L17 29L18 29L18 31L20 31L20 30L22 30L22 29L23 29L23 31L22 31L22 34L23 34L23 33L25 33L25 32L23 32L23 31L25 31L25 30L26 30L26 28L25 28L25 27L26 27L26 26L25 26L25 25L24 25L24 24L25 24L25 22L27 22L27 23L26 23L26 24L27 24L27 30L28 30L28 31L26 31L26 34L28 34L28 36L27 36L27 35L26 35L26 36L25 36L25 34L24 34L24 36L23 36L23 35L22 35L22 37L24 37L24 36L25 36L25 37L26 37L26 36L27 36L27 37L30 37L30 35L29 35L29 34L31 34L31 36L32 36L32 34L31 34L31 33L33 33L33 37L34 37L34 35L36 35L36 37L37 37L37 34L34 34L34 33L35 33L35 32L37 32L37 30L36 30L36 31L35 31L35 32L33 32L33 30L35 30L35 27L36 27L36 28L37 28L37 26L36 26L36 25L37 25L37 22L36 22L36 21L37 21L37 18L36 18L36 17L37 17L37 14L36 14L36 13L37 13L37 12L36 12L36 11L37 11L37 10L36 10L36 9L35 9L35 10L33 10L33 9L34 9L34 8L32 8L32 9L31 9L31 10L28 10L28 8L29 8L29 0L28 0L28 2L27 2L27 0L26 0L26 1L25 1L25 0ZM25 2L25 3L26 3L26 4L25 4L25 8L27 8L27 7L28 7L28 3L26 3L26 2ZM9 3L9 5L11 5L11 4L10 4L10 3ZM26 4L26 5L27 5L27 4ZM9 6L9 7L10 7L10 6ZM14 6L14 7L15 7L15 6ZM16 6L16 7L17 7L17 6ZM20 6L20 7L21 7L21 6ZM26 6L26 7L27 7L27 6ZM6 9L6 10L5 10L5 11L6 11L6 12L5 12L5 13L4 13L4 14L3 14L3 12L4 12L4 11L3 11L3 10L2 10L2 12L1 12L1 13L2 13L2 14L3 14L3 15L4 15L4 14L7 14L7 13L6 13L6 12L7 12L7 11L6 11L6 10L8 10L8 9ZM9 9L9 10L10 10L10 9ZM25 9L25 12L24 12L24 10L22 10L22 11L21 11L21 10L18 10L18 11L17 11L17 10L16 10L16 11L15 11L15 12L16 12L16 15L15 15L15 16L16 16L16 15L17 15L17 16L18 16L18 17L17 17L17 19L15 19L15 20L18 20L18 21L15 21L15 22L18 22L18 23L12 23L12 22L13 22L13 21L12 21L12 22L11 22L11 24L12 24L12 26L13 26L13 25L14 25L14 26L16 26L16 25L15 25L15 24L17 24L17 25L19 25L19 24L20 24L20 25L22 25L22 26L23 26L23 29L25 29L25 28L24 28L24 26L23 26L23 24L24 24L24 22L23 22L23 24L22 24L22 22L18 22L18 21L20 21L20 20L21 20L21 21L25 21L25 20L27 20L27 21L28 21L28 23L27 23L27 24L28 24L28 25L29 25L29 27L31 27L31 25L30 25L30 24L32 24L32 26L33 26L33 24L32 24L32 23L33 23L33 22L31 22L31 21L30 21L30 20L31 20L31 19L32 19L32 20L33 20L33 19L34 19L34 20L36 20L36 18L33 18L33 17L32 17L32 15L33 15L33 16L34 16L34 14L33 14L33 12L34 12L34 13L35 13L35 11L36 11L36 10L35 10L35 11L33 11L33 12L32 12L32 13L30 13L30 12L31 12L31 11L32 11L32 10L31 10L31 11L30 11L30 12L29 12L29 11L27 11L27 12L26 12L26 10L27 10L27 9ZM11 10L11 11L12 11L12 10ZM9 12L9 13L8 13L8 14L9 14L9 13L10 13L10 14L11 14L11 15L12 15L12 14L11 14L11 13L12 13L12 12ZM19 12L19 13L17 13L17 15L18 15L18 14L20 14L20 12ZM21 12L21 13L22 13L22 14L24 14L24 16L25 16L25 17L23 17L23 15L22 15L22 16L21 16L21 15L20 15L20 17L18 17L18 18L19 18L19 19L18 19L18 20L19 20L19 19L21 19L21 18L22 18L22 17L23 17L23 19L22 19L22 20L23 20L23 19L24 19L24 20L25 20L25 19L26 19L26 17L27 17L27 20L29 20L29 19L28 19L28 18L30 18L30 19L31 19L31 18L32 18L32 19L33 19L33 18L32 18L32 17L31 17L31 16L30 16L30 14L29 14L29 12L27 12L27 15L26 15L26 14L25 14L25 13L24 13L24 12L23 12L23 13L22 13L22 12ZM28 14L28 15L29 15L29 14ZM31 14L31 15L32 15L32 14ZM25 15L25 16L26 16L26 15ZM35 15L35 17L36 17L36 15ZM15 17L15 18L16 18L16 17ZM20 17L20 18L21 18L21 17ZM30 17L30 18L31 18L31 17ZM0 18L0 19L1 19L1 18ZM6 20L6 21L7 21L7 20ZM34 21L34 27L35 27L35 25L36 25L36 23L35 23L35 21ZM29 22L29 23L28 23L28 24L29 24L29 23L30 23L30 22ZM6 23L6 24L5 24L5 25L6 25L6 26L5 26L5 28L8 28L8 27L6 27L6 26L7 26L7 25L6 25L6 24L7 24L7 23ZM18 23L18 24L19 24L19 23ZM32 27L32 28L33 28L33 27ZM29 29L29 32L32 32L32 29ZM30 30L30 31L31 31L31 30ZM15 31L15 33L14 33L14 34L15 34L15 33L16 33L16 34L17 34L17 32L16 32L16 31ZM12 33L12 34L13 34L13 33ZM28 33L28 34L29 34L29 33ZM8 35L8 37L10 37L10 35ZM12 36L12 37L13 37L13 36ZM0 0L0 7L7 7L7 0ZM1 1L1 6L6 6L6 1ZM2 2L2 5L5 5L5 2ZM30 0L30 7L37 7L37 0ZM31 1L31 6L36 6L36 1ZM32 2L32 5L35 5L35 2ZM0 30L0 37L7 37L7 30ZM1 31L1 36L6 36L6 31ZM2 32L2 35L5 35L5 32Z" fill="#000000"/></g></g></svg>
