<?xml version="1.0" encoding="UTF-8"?>
<svg xmlns="http://www.w3.org/2000/svg" version="1.1" width="300" height="300" viewBox="0 0 300 300"><rect x="0" y="0" width="300" height="300" fill="#ffffff"/><g transform="scale(8.108)"><g transform="translate(0,0)"><path fill-rule="evenodd" d="M9 0L9 1L8 1L8 2L9 2L9 3L8 3L8 4L10 4L10 2L11 2L11 1L12 1L12 2L13 2L13 1L12 1L12 0L11 0L11 1L10 1L10 0ZM14 0L14 1L15 1L15 4L14 4L14 3L12 3L12 4L11 4L11 5L10 5L10 7L11 7L11 5L12 5L12 8L13 8L13 9L14 9L14 10L15 10L15 13L14 13L14 12L12 12L12 11L13 11L13 10L12 10L12 9L11 9L11 8L6 8L6 9L5 9L5 8L0 8L0 9L3 9L3 10L0 10L0 12L1 12L1 13L0 13L0 14L1 14L1 15L2 15L2 17L0 17L0 21L2 21L2 22L0 22L0 23L1 23L1 24L0 24L0 29L1 29L1 25L2 25L2 23L3 23L3 25L4 25L4 28L5 28L5 29L7 29L7 28L6 28L6 27L8 27L8 31L9 31L9 30L10 30L10 31L11 31L11 30L12 30L12 29L11 29L11 30L10 30L10 29L9 29L9 28L11 28L11 26L12 26L12 27L14 27L14 28L13 28L13 29L15 29L15 27L16 27L16 28L17 28L17 29L18 29L18 30L17 30L17 31L16 31L16 30L15 30L15 31L14 31L14 30L13 30L13 31L14 31L14 33L13 33L13 32L12 32L12 33L11 33L11 34L10 34L10 33L9 33L9 32L8 32L8 37L9 37L9 36L10 36L10 37L16 37L16 35L17 35L17 34L18 34L18 35L19 35L19 37L20 37L20 36L23 36L23 35L21 35L21 34L22 34L22 33L25 33L25 32L23 32L23 30L24 30L24 31L26 31L26 33L28 33L28 35L26 35L26 37L28 37L28 36L30 36L30 35L29 35L29 34L31 34L31 37L37 37L37 34L35 34L35 32L37 32L37 30L35 30L35 28L33 28L33 27L34 27L34 26L32 26L32 25L35 25L35 27L36 27L36 28L37 28L37 26L36 26L36 25L37 25L37 22L36 22L36 21L37 21L37 18L36 18L36 17L37 17L37 14L36 14L36 13L37 13L37 12L36 12L36 11L37 11L37 10L36 10L36 8L35 8L35 9L34 9L34 8L33 8L33 10L32 10L32 8L31 8L31 10L29 10L29 9L30 9L30 8L29 8L29 4L28 4L28 3L29 3L29 1L26 1L26 0L23 0L23 1L22 1L22 2L21 2L21 3L20 3L20 4L19 4L19 1L20 1L20 0L19 0L19 1L18 1L18 3L16 3L16 1L15 1L15 0ZM9 1L9 2L10 2L10 1ZM23 1L23 2L24 2L24 3L23 3L23 4L25 4L25 8L24 8L24 5L23 5L23 7L22 7L22 6L21 6L21 4L20 4L20 5L19 5L19 4L18 4L18 5L17 5L17 4L15 4L15 5L14 5L14 4L12 4L12 5L13 5L13 8L14 8L14 9L15 9L15 10L16 10L16 12L18 12L18 13L20 13L20 14L18 14L18 15L17 15L17 13L15 13L15 14L13 14L13 16L11 16L11 15L12 15L12 14L11 14L11 13L10 13L10 16L9 16L9 15L8 15L8 16L7 16L7 15L6 15L6 14L7 14L7 13L6 13L6 12L8 12L8 14L9 14L9 12L8 12L8 11L6 11L6 12L5 12L5 10L4 10L4 11L2 11L2 14L3 14L3 13L4 13L4 14L5 14L5 15L6 15L6 16L7 16L7 17L5 17L5 16L4 16L4 15L3 15L3 17L2 17L2 18L1 18L1 19L2 19L2 18L3 18L3 17L5 17L5 18L4 18L4 19L3 19L3 20L2 20L2 21L3 21L3 23L5 23L5 24L4 24L4 25L6 25L6 26L7 26L7 25L8 25L8 27L10 27L10 26L9 26L9 25L8 25L8 24L9 24L9 23L11 23L11 25L12 25L12 26L13 26L13 24L15 24L15 23L12 23L12 22L13 22L13 21L12 21L12 20L14 20L14 19L13 19L13 17L14 17L14 15L15 15L15 14L16 14L16 16L18 16L18 17L17 17L17 18L16 18L16 20L18 20L18 21L17 21L17 22L18 22L18 23L16 23L16 25L17 25L17 24L18 24L18 25L19 25L19 27L18 27L18 26L17 26L17 28L18 28L18 29L19 29L19 31L17 31L17 32L15 32L15 34L16 34L16 33L17 33L17 32L18 32L18 33L19 33L19 35L20 35L20 33L22 33L22 32L21 32L21 31L22 31L22 30L23 30L23 29L25 29L25 28L26 28L26 30L27 30L27 32L28 32L28 29L27 29L27 28L29 28L29 27L31 27L31 25L32 25L32 23L33 23L33 24L36 24L36 23L35 23L35 22L34 22L34 21L32 21L32 22L31 22L31 21L30 21L30 20L31 20L31 19L29 19L29 20L28 20L28 19L26 19L26 18L28 18L28 17L26 17L26 18L25 18L25 20L24 20L24 18L23 18L23 17L25 17L25 16L29 16L29 14L30 14L30 16L31 16L31 17L30 17L30 18L31 18L31 17L32 17L32 20L36 20L36 19L34 19L34 17L32 17L32 16L33 16L33 15L34 15L34 16L35 16L35 17L36 17L36 15L34 15L34 13L32 13L32 12L31 12L31 11L32 11L32 10L31 10L31 11L30 11L30 12L31 12L31 13L29 13L29 11L28 11L28 13L25 13L25 12L26 12L26 9L25 9L25 8L28 8L28 9L27 9L27 10L28 10L28 9L29 9L29 8L28 8L28 6L27 6L27 5L28 5L28 4L27 4L27 5L26 5L26 4L25 4L25 3L26 3L26 2L25 2L25 1ZM8 5L8 7L9 7L9 5ZM15 5L15 6L14 6L14 7L15 7L15 9L17 9L17 11L18 11L18 10L20 10L20 9L23 9L23 10L24 10L24 12L25 12L25 9L23 9L23 8L22 8L22 7L21 7L21 6L20 6L20 7L21 7L21 8L20 8L20 9L19 9L19 8L16 8L16 7L17 7L17 6L16 6L16 5ZM18 5L18 7L19 7L19 5ZM15 6L15 7L16 7L16 6ZM26 6L26 7L27 7L27 6ZM6 9L6 10L7 10L7 9ZM8 9L8 10L9 10L9 9ZM10 9L10 10L11 10L11 11L12 11L12 10L11 10L11 9ZM21 10L21 12L20 12L20 13L21 13L21 14L24 14L24 16L25 16L25 15L26 15L26 14L25 14L25 13L23 13L23 12L22 12L22 10ZM35 10L35 11L34 11L34 12L35 12L35 13L36 13L36 12L35 12L35 11L36 11L36 10ZM5 13L5 14L6 14L6 13ZM28 13L28 14L27 14L27 15L28 15L28 14L29 14L29 13ZM31 14L31 15L32 15L32 14ZM21 15L21 16L20 16L20 17L18 17L18 18L17 18L17 19L18 19L18 20L19 20L19 19L18 19L18 18L20 18L20 17L23 17L23 16L22 16L22 15ZM8 16L8 18L10 18L10 19L7 19L7 18L5 18L5 19L4 19L4 20L3 20L3 21L5 21L5 23L7 23L7 24L6 24L6 25L7 25L7 24L8 24L8 23L9 23L9 22L10 22L10 21L11 21L11 22L12 22L12 21L11 21L11 20L10 20L10 19L11 19L11 18L12 18L12 17L11 17L11 16L10 16L10 17L9 17L9 16ZM10 17L10 18L11 18L11 17ZM22 18L22 19L21 19L21 20L20 20L20 21L18 21L18 22L20 22L20 21L21 21L21 20L23 20L23 18ZM6 19L6 20L5 20L5 21L6 21L6 22L7 22L7 21L8 21L8 22L9 22L9 21L10 21L10 20L9 20L9 21L8 21L8 20L7 20L7 19ZM6 20L6 21L7 21L7 20ZM25 20L25 21L23 21L23 22L22 22L22 23L21 23L21 24L20 24L20 26L21 26L21 24L22 24L22 25L23 25L23 26L22 26L22 27L21 27L21 28L20 28L20 31L21 31L21 28L22 28L22 29L23 29L23 28L22 28L22 27L23 27L23 26L24 26L24 28L25 28L25 27L26 27L26 28L27 28L27 27L29 27L29 25L31 25L31 24L29 24L29 23L30 23L30 22L29 22L29 21L28 21L28 22L27 22L27 23L26 23L26 24L25 24L25 22L26 22L26 21L27 21L27 20ZM14 21L14 22L15 22L15 21ZM23 22L23 25L25 25L25 26L26 26L26 27L27 27L27 26L28 26L28 25L25 25L25 24L24 24L24 22ZM28 22L28 23L29 23L29 22ZM33 22L33 23L34 23L34 22ZM18 23L18 24L19 24L19 23ZM14 25L14 26L15 26L15 25ZM2 27L2 28L3 28L3 27ZM29 29L29 32L32 32L32 29ZM33 29L33 31L34 31L34 32L35 32L35 31L34 31L34 29ZM30 30L30 31L31 31L31 30ZM12 33L12 34L11 34L11 36L14 36L14 35L12 35L12 34L13 34L13 33ZM31 33L31 34L32 34L32 36L36 36L36 35L33 35L33 34L34 34L34 33L33 33L33 34L32 34L32 33ZM9 34L9 35L10 35L10 34ZM24 34L24 36L25 36L25 34ZM17 36L17 37L18 37L18 36ZM0 0L0 7L7 7L7 0ZM1 1L1 6L6 6L6 1ZM2 2L2 5L5 5L5 2ZM30 0L30 7L37 7L37 0ZM31 1L31 6L36 6L36 1ZM32 2L32 5L35 5L35 2ZM0 30L0 37L7 37L7 30ZM1 31L1 36L6 36L6 31ZM2 32L2 35L5 35L5 32Z" fill="#000000"/></g></g></svg>
