<?xml version="1.0" encoding="UTF-8"?>
<svg xmlns="http://www.w3.org/2000/svg" version="1.1" width="300" height="300" viewBox="0 0 300 300"><rect x="0" y="0" width="300" height="300" fill="#ffffff"/><g transform="scale(8.108)"><g transform="translate(0,0)"><path fill-rule="evenodd" d="M8 0L8 1L9 1L9 2L8 2L8 5L9 5L9 6L8 6L8 7L9 7L9 8L8 8L8 9L7 9L7 8L6 8L6 9L7 9L7 10L6 10L6 11L8 11L8 10L10 10L10 11L11 11L11 12L6 12L6 13L7 13L7 14L6 14L6 15L7 15L7 16L6 16L6 17L9 17L9 18L4 18L4 16L5 16L5 14L3 14L3 16L2 16L2 18L1 18L1 20L0 20L0 21L1 21L1 22L0 22L0 24L1 24L1 22L2 22L2 21L3 21L3 20L2 20L2 19L3 19L3 18L4 18L4 19L5 19L5 20L6 20L6 21L7 21L7 20L6 20L6 19L8 19L8 20L9 20L9 21L10 21L10 22L9 22L9 23L8 23L8 22L3 22L3 23L2 23L2 25L3 25L3 26L1 26L1 27L0 27L0 28L1 28L1 27L2 27L2 28L3 28L3 29L4 29L4 28L5 28L5 27L4 27L4 28L3 28L3 26L6 26L6 27L7 27L7 28L6 28L6 29L8 29L8 30L9 30L9 31L11 31L11 32L9 32L9 33L8 33L8 37L10 37L10 33L11 33L11 35L12 35L12 36L11 36L11 37L16 37L16 36L17 36L17 37L18 37L18 36L19 36L19 37L20 37L20 36L21 36L21 35L22 35L22 32L23 32L23 33L24 33L24 32L25 32L25 33L27 33L27 32L28 32L28 34L26 34L26 35L25 35L25 36L26 36L26 37L28 37L28 36L27 36L27 35L29 35L29 36L31 36L31 37L37 37L37 36L35 36L35 33L34 33L34 35L33 35L33 30L34 30L34 31L37 31L37 27L36 27L36 26L37 26L37 24L35 24L35 23L33 23L33 22L32 22L32 21L33 21L33 20L34 20L34 19L35 19L35 21L34 21L34 22L36 22L36 19L37 19L37 17L36 17L36 16L37 16L37 15L36 15L36 14L37 14L37 11L36 11L36 9L37 9L37 8L36 8L36 9L35 9L35 8L32 8L32 9L31 9L31 10L32 10L32 9L33 9L33 10L34 10L34 12L33 12L33 11L32 11L32 14L33 14L33 16L34 16L34 17L33 17L33 18L34 18L34 19L32 19L32 18L31 18L31 17L29 17L29 16L30 16L30 15L31 15L31 11L29 11L29 9L30 9L30 8L29 8L29 6L28 6L28 7L27 7L27 6L26 6L26 5L25 5L25 6L24 6L24 7L23 7L23 6L22 6L22 7L23 7L23 8L24 8L24 9L23 9L23 11L22 11L22 12L20 12L20 11L21 11L21 10L20 10L20 9L21 9L21 6L20 6L20 5L21 5L21 4L22 4L22 5L23 5L23 3L24 3L24 1L25 1L25 4L27 4L27 5L29 5L29 4L28 4L28 3L27 3L27 2L26 2L26 0L23 0L23 1L20 1L20 0L19 0L19 1L20 1L20 2L18 2L18 1L17 1L17 2L16 2L16 3L15 3L15 5L16 5L16 7L17 7L17 10L18 10L18 12L17 12L17 11L16 11L16 12L15 12L15 9L14 9L14 11L12 11L12 9L13 9L13 8L12 8L12 7L13 7L13 6L14 6L14 8L15 8L15 6L14 6L14 5L13 5L13 4L14 4L14 2L15 2L15 0L14 0L14 2L12 2L12 0L11 0L11 1L10 1L10 0ZM28 1L28 2L29 2L29 1ZM9 2L9 3L10 3L10 6L9 6L9 7L10 7L10 8L9 8L9 9L10 9L10 10L11 10L11 9L12 9L12 8L11 8L11 7L12 7L12 6L13 6L13 5L12 5L12 2L11 2L11 3L10 3L10 2ZM17 2L17 3L18 3L18 2ZM20 2L20 3L19 3L19 4L20 4L20 3L23 3L23 2ZM16 4L16 5L17 5L17 7L18 7L18 5L17 5L17 4ZM10 6L10 7L11 7L11 6ZM19 6L19 8L18 8L18 9L19 9L19 8L20 8L20 6ZM25 6L25 7L24 7L24 8L25 8L25 10L24 10L24 11L23 11L23 15L22 15L22 16L21 16L21 14L22 14L22 13L21 13L21 14L20 14L20 15L16 15L16 14L19 14L19 13L20 13L20 12L18 12L18 13L16 13L16 14L15 14L15 12L14 12L14 13L11 13L11 14L10 14L10 13L9 13L9 14L7 14L7 15L8 15L8 16L9 16L9 14L10 14L10 17L11 17L11 15L13 15L13 18L11 18L11 19L13 19L13 20L11 20L11 21L12 21L12 23L11 23L11 22L10 22L10 24L11 24L11 28L10 28L10 27L9 27L9 26L10 26L10 25L9 25L9 24L8 24L8 25L6 25L6 24L7 24L7 23L5 23L5 24L4 24L4 23L3 23L3 24L4 24L4 25L6 25L6 26L8 26L8 27L9 27L9 30L11 30L11 31L13 31L13 32L11 32L11 33L12 33L12 35L13 35L13 32L16 32L16 31L17 31L17 30L19 30L19 32L20 32L20 33L19 33L19 34L18 34L18 35L17 35L17 36L18 36L18 35L19 35L19 36L20 36L20 35L21 35L21 34L20 34L20 33L21 33L21 32L22 32L22 30L21 30L21 32L20 32L20 30L19 30L19 29L21 29L21 25L22 25L22 28L24 28L24 27L25 27L25 28L26 28L26 27L27 27L27 29L24 29L24 30L23 30L23 31L24 31L24 30L27 30L27 31L25 31L25 32L27 32L27 31L28 31L28 30L27 30L27 29L28 29L28 28L29 28L29 27L30 27L30 26L26 26L26 25L25 25L25 23L26 23L26 22L27 22L27 24L30 24L30 22L31 22L31 23L32 23L32 22L31 22L31 21L32 21L32 20L29 20L29 22L28 22L28 21L26 21L26 18L27 18L27 17L28 17L28 18L29 18L29 17L28 17L28 16L29 16L29 15L28 15L28 14L26 14L26 13L25 13L25 11L27 11L27 12L28 12L28 13L29 13L29 12L28 12L28 8L27 8L27 10L26 10L26 6ZM0 8L0 9L1 9L1 10L0 10L0 11L1 11L1 10L2 10L2 11L5 11L5 9L4 9L4 8ZM2 9L2 10L4 10L4 9ZM19 10L19 11L20 11L20 10ZM0 12L0 15L2 15L2 14L1 14L1 13L3 13L3 12ZM4 12L4 13L5 13L5 12ZM35 12L35 14L34 14L34 16L36 16L36 15L35 15L35 14L36 14L36 12ZM13 14L13 15L14 15L14 16L16 16L16 17L17 17L17 16L16 16L16 15L15 15L15 14ZM24 15L24 16L22 16L22 17L21 17L21 18L22 18L22 20L21 20L21 19L20 19L20 20L18 20L18 18L17 18L17 21L15 21L15 20L14 20L14 21L13 21L13 23L12 23L12 24L13 24L13 25L12 25L12 26L14 26L14 28L11 28L11 30L13 30L13 31L14 31L14 28L15 28L15 31L16 31L16 30L17 30L17 29L16 29L16 28L17 28L17 27L16 27L16 28L15 28L15 25L16 25L16 26L17 26L17 25L18 25L18 24L17 24L17 21L18 21L18 23L19 23L19 24L20 24L20 25L21 25L21 24L20 24L20 23L24 23L24 22L26 22L26 21L25 21L25 20L24 20L24 19L25 19L25 18L24 18L24 17L26 17L26 16L25 16L25 15ZM18 16L18 17L19 17L19 16ZM14 17L14 18L13 18L13 19L16 19L16 18L15 18L15 17ZM34 17L34 18L35 18L35 17ZM23 18L23 19L24 19L24 18ZM9 19L9 20L10 20L10 19ZM1 20L1 21L2 21L2 20ZM23 20L23 21L20 21L20 22L19 22L19 23L20 23L20 22L23 22L23 21L24 21L24 20ZM14 21L14 24L16 24L16 25L17 25L17 24L16 24L16 22L15 22L15 21ZM22 24L22 25L23 25L23 24ZM31 24L31 25L32 25L32 24ZM8 25L8 26L9 26L9 25ZM34 25L34 26L33 26L33 29L34 29L34 30L36 30L36 29L34 29L34 28L36 28L36 27L34 27L34 26L36 26L36 25ZM19 26L19 27L20 27L20 26ZM31 26L31 27L32 27L32 26ZM18 28L18 29L19 29L19 28ZM29 29L29 32L32 32L32 29ZM30 30L30 31L31 31L31 30ZM36 32L36 33L37 33L37 32ZM15 33L15 34L14 34L14 35L15 35L15 36L16 36L16 33ZM31 33L31 34L32 34L32 33ZM23 34L23 35L24 35L24 34ZM31 35L31 36L33 36L33 35ZM0 0L0 7L7 7L7 0ZM1 1L1 6L6 6L6 1ZM2 2L2 5L5 5L5 2ZM30 0L30 7L37 7L37 0ZM31 1L31 6L36 6L36 1ZM32 2L32 5L35 5L35 2ZM0 30L0 37L7 37L7 30ZM1 31L1 36L6 36L6 31ZM2 32L2 35L5 35L5 32Z" fill="#000000"/></g></g></svg>
