<?xml version="1.0" encoding="UTF-8"?>
<svg xmlns="http://www.w3.org/2000/svg" version="1.1" width="300" height="300" viewBox="0 0 300 300"><rect x="0" y="0" width="300" height="300" fill="#ffffff"/><g transform="scale(8.108)"><g transform="translate(0,0)"><path fill-rule="evenodd" d="M11 0L11 1L9 1L9 2L11 2L11 1L13 1L13 2L12 2L12 4L13 4L13 5L11 5L11 6L10 6L10 8L9 8L9 10L10 10L10 12L9 12L9 11L8 11L8 8L5 8L5 9L4 9L4 10L3 10L3 9L2 9L2 8L0 8L0 9L1 9L1 10L0 10L0 13L1 13L1 12L2 12L2 11L3 11L3 12L5 12L5 15L4 15L4 13L2 13L2 14L1 14L1 15L2 15L2 14L3 14L3 15L4 15L4 16L5 16L5 15L7 15L7 16L6 16L6 17L5 17L5 18L4 18L4 17L3 17L3 16L2 16L2 17L1 17L1 16L0 16L0 19L2 19L2 17L3 17L3 21L5 21L5 23L7 23L7 22L8 22L8 24L6 24L6 25L4 25L4 22L3 22L3 24L2 24L2 25L1 25L1 23L2 23L2 22L1 22L1 20L0 20L0 22L1 22L1 23L0 23L0 29L1 29L1 26L2 26L2 27L4 27L4 28L5 28L5 27L4 27L4 26L6 26L6 27L7 27L7 26L9 26L9 25L10 25L10 24L9 24L9 23L11 23L11 24L12 24L12 25L11 25L11 26L12 26L12 27L11 27L11 28L13 28L13 29L16 29L16 30L15 30L15 31L14 31L14 30L13 30L13 31L14 31L14 32L12 32L12 33L11 33L11 34L10 34L10 31L12 31L12 29L10 29L10 27L8 27L8 28L6 28L6 29L8 29L8 32L9 32L9 34L10 34L10 35L11 35L11 34L12 34L12 35L13 35L13 34L12 34L12 33L17 33L17 34L14 34L14 35L18 35L18 34L21 34L21 35L22 35L22 34L21 34L21 33L23 33L23 34L24 34L24 36L23 36L23 37L24 37L24 36L25 36L25 33L26 33L26 32L25 32L25 31L26 31L26 29L27 29L27 30L28 30L28 31L27 31L27 34L28 34L28 37L31 37L31 35L30 35L30 34L32 34L32 33L33 33L33 31L34 31L34 30L35 30L35 27L36 27L36 28L37 28L37 26L36 26L36 25L37 25L37 22L36 22L36 21L37 21L37 18L36 18L36 17L37 17L37 14L36 14L36 12L35 12L35 13L34 13L34 12L33 12L33 11L32 11L32 12L33 12L33 14L32 14L32 15L33 15L33 14L34 14L34 17L35 17L35 18L34 18L34 19L35 19L35 18L36 18L36 20L34 20L34 22L33 22L33 20L31 20L31 18L30 18L30 17L33 17L33 16L31 16L31 14L30 14L30 13L31 13L31 10L30 10L30 9L29 9L29 8L25 8L25 10L27 10L27 11L26 11L26 12L28 12L28 13L27 13L27 15L29 15L29 14L30 14L30 17L28 17L28 16L27 16L27 19L26 19L26 22L27 22L27 23L26 23L26 24L25 24L25 21L23 21L23 20L25 20L25 18L26 18L26 16L25 16L25 15L26 15L26 14L25 14L25 12L24 12L24 11L23 11L23 9L21 9L21 6L22 6L22 8L23 8L23 5L21 5L21 6L20 6L20 7L19 7L19 6L18 6L18 5L20 5L20 4L21 4L21 3L22 3L22 0L21 0L21 1L20 1L20 2L19 2L19 4L18 4L18 3L17 3L17 2L18 2L18 1L19 1L19 0L18 0L18 1L17 1L17 0L16 0L16 1L17 1L17 2L16 2L16 3L17 3L17 4L18 4L18 5L17 5L17 6L16 6L16 7L17 7L17 6L18 6L18 8L15 8L15 4L13 4L13 2L15 2L15 1L14 1L14 0ZM23 0L23 1L24 1L24 3L23 3L23 4L25 4L25 5L24 5L24 7L25 7L25 5L26 5L26 7L27 7L27 5L26 5L26 3L25 3L25 2L26 2L26 1L27 1L27 0L25 0L25 1L24 1L24 0ZM28 1L28 2L27 2L27 3L29 3L29 1ZM8 3L8 5L10 5L10 4L9 4L9 3ZM28 4L28 5L29 5L29 4ZM8 6L8 7L9 7L9 6ZM11 6L11 7L12 7L12 8L14 8L14 6L13 6L13 7L12 7L12 6ZM28 6L28 7L29 7L29 6ZM10 8L10 10L11 10L11 11L12 11L12 12L13 12L13 13L12 13L12 14L11 14L11 13L9 13L9 12L7 12L7 11L6 11L6 10L7 10L7 9L6 9L6 10L4 10L4 11L5 11L5 12L7 12L7 13L6 13L6 14L7 14L7 15L8 15L8 17L6 17L6 18L7 18L7 19L6 19L6 20L5 20L5 21L6 21L6 22L7 22L7 21L6 21L6 20L7 20L7 19L8 19L8 21L9 21L9 22L10 22L10 21L12 21L12 22L11 22L11 23L12 23L12 24L13 24L13 25L14 25L14 26L13 26L13 28L14 28L14 26L15 26L15 24L16 24L16 27L15 27L15 28L16 28L16 27L17 27L17 28L18 28L18 29L20 29L20 30L23 30L23 29L26 29L26 27L27 27L27 26L26 26L26 25L27 25L27 24L29 24L29 25L30 25L30 26L28 26L28 27L30 27L30 28L32 28L32 27L33 27L33 28L34 28L34 26L35 26L35 25L36 25L36 23L33 23L33 24L32 24L32 25L30 25L30 24L31 24L31 23L32 23L32 21L30 21L30 19L29 19L29 18L28 18L28 19L29 19L29 20L28 20L28 22L30 22L30 24L29 24L29 23L27 23L27 24L26 24L26 25L25 25L25 24L24 24L24 22L22 22L22 19L23 19L23 17L25 17L25 16L24 16L24 15L25 15L25 14L23 14L23 13L24 13L24 12L22 12L22 10L18 10L18 9L20 9L20 8L18 8L18 9L17 9L17 10L16 10L16 11L12 11L12 9L11 9L11 8ZM32 8L32 10L34 10L34 11L35 11L35 10L34 10L34 8ZM28 9L28 10L29 10L29 12L30 12L30 10L29 10L29 9ZM1 10L1 11L2 11L2 10ZM17 10L17 11L18 11L18 12L19 12L19 13L17 13L17 14L18 14L18 15L19 15L19 14L20 14L20 12L21 12L21 11L18 11L18 10ZM36 10L36 11L37 11L37 10ZM15 12L15 14L14 14L14 13L13 13L13 14L12 14L12 15L16 15L16 16L12 16L12 17L11 17L11 15L10 15L10 14L9 14L9 13L7 13L7 14L8 14L8 15L9 15L9 16L10 16L10 17L11 17L11 18L8 18L8 19L10 19L10 20L9 20L9 21L10 21L10 20L11 20L11 19L12 19L12 20L13 20L13 18L12 18L12 17L15 17L15 18L14 18L14 21L13 21L13 22L12 22L12 23L14 23L14 24L15 24L15 23L16 23L16 22L18 22L18 23L19 23L19 22L21 22L21 20L20 20L20 21L18 21L18 20L15 20L15 19L17 19L17 18L16 18L16 17L18 17L18 19L21 19L21 18L22 18L22 17L23 17L23 14L22 14L22 13L21 13L21 14L22 14L22 17L21 17L21 15L20 15L20 17L18 17L18 16L17 16L17 15L16 15L16 12ZM28 13L28 14L29 14L29 13ZM35 14L35 17L36 17L36 14ZM20 17L20 18L21 18L21 17ZM32 18L32 19L33 19L33 18ZM14 21L14 22L15 22L15 21ZM22 23L22 25L21 25L21 26L22 26L22 27L23 27L23 26L24 26L24 28L25 28L25 25L24 25L24 24L23 24L23 23ZM19 24L19 25L18 25L18 27L19 27L19 26L20 26L20 24ZM2 25L2 26L3 26L3 25ZM6 25L6 26L7 26L7 25ZM22 25L22 26L23 26L23 25ZM33 25L33 26L34 26L34 25ZM30 26L30 27L31 27L31 26ZM20 27L20 29L23 29L23 28L21 28L21 27ZM8 28L8 29L9 29L9 28ZM29 29L29 32L32 32L32 29ZM18 30L18 31L15 31L15 32L18 32L18 31L19 31L19 33L20 33L20 32L22 32L22 31L19 31L19 30ZM30 30L30 31L31 31L31 30ZM36 30L36 31L37 31L37 30ZM23 31L23 33L25 33L25 32L24 32L24 31ZM34 32L34 34L33 34L33 35L32 35L32 36L33 36L33 37L34 37L34 36L33 36L33 35L34 35L34 34L35 34L35 35L36 35L36 37L37 37L37 34L35 34L35 33L37 33L37 32ZM28 33L28 34L29 34L29 33ZM8 35L8 37L10 37L10 36L9 36L9 35ZM11 36L11 37L12 37L12 36ZM15 36L15 37L18 37L18 36ZM19 36L19 37L20 37L20 36ZM21 36L21 37L22 37L22 36ZM26 36L26 37L27 37L27 36ZM0 0L0 7L7 7L7 0ZM1 1L1 6L6 6L6 1ZM2 2L2 5L5 5L5 2ZM30 0L30 7L37 7L37 0ZM31 1L31 6L36 6L36 1ZM32 2L32 5L35 5L35 2ZM0 30L0 37L7 37L7 30ZM1 31L1 36L6 36L6 31ZM2 32L2 35L5 35L5 32Z" fill="#000000"/></g></g></svg>
