<?xml version="1.0" encoding="UTF-8"?>
<svg xmlns="http://www.w3.org/2000/svg" version="1.1" width="300" height="300" viewBox="0 0 300 300"><rect x="0" y="0" width="300" height="300" fill="#ffffff"/><g transform="scale(8.108)"><g transform="translate(0,0)"><path fill-rule="evenodd" d="M10 0L10 2L11 2L11 0ZM12 0L12 1L13 1L13 2L12 2L12 4L13 4L13 5L11 5L11 6L10 6L10 4L11 4L11 3L8 3L8 4L9 4L9 5L8 5L8 7L9 7L9 8L6 8L6 9L5 9L5 8L0 8L0 9L3 9L3 10L0 10L0 14L1 14L1 15L0 15L0 17L1 17L1 15L3 15L3 14L4 14L4 17L8 17L8 18L6 18L6 19L8 19L8 18L9 18L9 17L10 17L10 18L12 18L12 20L13 20L13 19L14 19L14 21L13 21L13 22L12 22L12 21L11 21L11 22L8 22L8 23L7 23L7 22L6 22L6 21L8 21L8 20L5 20L5 18L4 18L4 19L3 19L3 18L0 18L0 19L2 19L2 20L0 20L0 23L2 23L2 24L3 24L3 23L4 23L4 22L6 22L6 23L7 23L7 24L4 24L4 25L3 25L3 27L4 27L4 28L2 28L2 29L4 29L4 28L5 28L5 29L8 29L8 31L11 31L11 30L12 30L12 29L11 29L11 28L13 28L13 29L15 29L15 30L14 30L14 32L12 32L12 33L11 33L11 34L12 34L12 35L13 35L13 34L12 34L12 33L14 33L14 35L15 35L15 36L13 36L13 37L16 37L16 35L18 35L18 34L20 34L20 33L21 33L21 36L20 36L20 37L23 37L23 36L22 36L22 34L24 34L24 36L25 36L25 37L26 37L26 36L25 36L25 33L26 33L26 34L27 34L27 33L28 33L28 35L27 35L27 36L30 36L30 37L37 37L37 34L35 34L35 35L36 35L36 36L34 36L34 33L37 33L37 32L34 32L34 31L37 31L37 30L35 30L35 28L34 28L34 27L36 27L36 28L37 28L37 26L36 26L36 25L37 25L37 22L36 22L36 21L37 21L37 18L36 18L36 17L37 17L37 14L36 14L36 13L35 13L35 12L34 12L34 11L35 11L35 9L36 9L36 8L35 8L35 9L34 9L34 8L33 8L33 9L34 9L34 11L32 11L32 12L31 12L31 10L30 10L30 8L28 8L28 7L29 7L29 6L28 6L28 5L29 5L29 0L28 0L28 1L27 1L27 3L25 3L25 2L26 2L26 1L24 1L24 3L22 3L22 2L21 2L21 1L23 1L23 0L17 0L17 2L16 2L16 1L15 1L15 0L14 0L14 1L13 1L13 0ZM8 1L8 2L9 2L9 1ZM18 1L18 2L17 2L17 3L18 3L18 4L15 4L15 5L16 5L16 6L15 6L15 7L16 7L16 8L18 8L18 9L14 9L14 10L16 10L16 12L18 12L18 13L20 13L20 14L19 14L19 15L18 15L18 14L17 14L17 13L14 13L14 14L16 14L16 16L18 16L18 17L12 17L12 16L14 16L14 15L12 15L12 14L13 14L13 13L12 13L12 12L15 12L15 11L12 11L12 9L11 9L11 8L10 8L10 9L9 9L9 10L8 10L8 12L7 12L7 11L6 11L6 10L7 10L7 9L6 9L6 10L4 10L4 11L3 11L3 13L4 13L4 14L5 14L5 15L6 15L6 16L7 16L7 15L8 15L8 16L10 16L10 15L11 15L11 17L12 17L12 18L14 18L14 19L15 19L15 18L16 18L16 20L18 20L18 21L20 21L20 22L19 22L19 23L18 23L18 22L17 22L17 21L15 21L15 22L16 22L16 24L18 24L18 25L14 25L14 26L13 26L13 28L15 28L15 27L14 27L14 26L16 26L16 28L18 28L18 29L20 29L20 30L16 30L16 32L18 32L18 31L19 31L19 33L20 33L20 32L21 32L21 29L20 29L20 28L21 28L21 27L22 27L22 26L23 26L23 29L22 29L22 31L23 31L23 33L25 33L25 32L26 32L26 33L27 33L27 32L28 32L28 29L26 29L26 28L29 28L29 27L30 27L30 28L33 28L33 27L34 27L34 26L35 26L35 25L34 25L34 24L36 24L36 23L34 23L34 24L33 24L33 25L32 25L32 24L31 24L31 23L32 23L32 22L33 22L33 21L34 21L34 22L35 22L35 21L34 21L34 20L36 20L36 19L35 19L35 17L36 17L36 14L35 14L35 15L34 15L34 13L30 13L30 10L29 10L29 12L28 12L28 11L27 11L27 10L28 10L28 9L26 9L26 10L25 10L25 8L27 8L27 7L28 7L28 6L27 6L27 7L26 7L26 5L28 5L28 4L26 4L26 5L25 5L25 4L21 4L21 3L20 3L20 5L18 5L18 4L19 4L19 2L20 2L20 1ZM13 2L13 4L14 4L14 2ZM15 2L15 3L16 3L16 2ZM17 5L17 6L16 6L16 7L17 7L17 6L18 6L18 8L20 8L20 9L18 9L18 10L17 10L17 11L18 11L18 12L20 12L20 13L21 13L21 12L22 12L22 13L23 13L23 14L22 14L22 15L21 15L21 16L20 16L20 17L18 17L18 18L17 18L17 19L19 19L19 18L20 18L20 17L21 17L21 16L22 16L22 17L23 17L23 18L22 18L22 19L21 19L21 20L20 20L20 21L21 21L21 22L22 22L22 21L23 21L23 22L24 22L24 24L25 24L25 21L23 21L23 20L25 20L25 19L26 19L26 21L28 21L28 22L27 22L27 23L26 23L26 26L27 26L27 27L28 27L28 26L30 26L30 27L31 27L31 26L30 26L30 25L31 25L31 24L30 24L30 22L29 22L29 21L28 21L28 20L29 20L29 18L30 18L30 21L33 21L33 20L34 20L34 19L33 19L33 20L31 20L31 19L32 19L32 18L30 18L30 17L33 17L33 18L34 18L34 17L35 17L35 16L34 16L34 15L33 15L33 14L32 14L32 16L31 16L31 14L30 14L30 13L29 13L29 14L27 14L27 15L26 15L26 14L25 14L25 13L27 13L27 11L26 11L26 12L24 12L24 11L23 11L23 10L22 10L22 11L18 11L18 10L20 10L20 9L21 9L21 8L23 8L23 5L22 5L22 7L21 7L21 5L20 5L20 7L19 7L19 6L18 6L18 5ZM24 5L24 7L25 7L25 5ZM9 6L9 7L10 7L10 6ZM11 6L11 7L12 7L12 8L14 8L14 6L13 6L13 7L12 7L12 6ZM31 8L31 9L32 9L32 8ZM10 9L10 10L9 10L9 11L10 11L10 13L9 13L9 12L8 12L8 13L9 13L9 14L8 14L8 15L9 15L9 14L10 14L10 13L11 13L11 14L12 14L12 13L11 13L11 12L12 12L12 11L11 11L11 9ZM36 10L36 11L37 11L37 10ZM4 11L4 13L7 13L7 12L6 12L6 11ZM1 12L1 13L2 13L2 12ZM6 14L6 15L7 15L7 14ZM23 14L23 15L22 15L22 16L23 16L23 17L25 17L25 16L26 16L26 18L28 18L28 17L30 17L30 14L29 14L29 16L28 16L28 17L27 17L27 16L26 16L26 15L25 15L25 14ZM24 15L24 16L25 16L25 15ZM33 16L33 17L34 17L34 16ZM23 18L23 19L24 19L24 18ZM9 19L9 21L10 21L10 19ZM27 19L27 20L28 20L28 19ZM2 20L2 21L4 21L4 20ZM21 20L21 21L22 21L22 20ZM11 22L11 23L10 23L10 24L9 24L9 23L8 23L8 24L7 24L7 25L4 25L4 26L5 26L5 27L6 27L6 28L8 28L8 27L9 27L9 29L10 29L10 27L9 27L9 26L8 26L8 27L6 27L6 26L7 26L7 25L10 25L10 26L11 26L11 27L12 27L12 26L11 26L11 23L12 23L12 24L14 24L14 23L12 23L12 22ZM21 23L21 24L20 24L20 25L18 25L18 27L19 27L19 26L20 26L20 25L21 25L21 24L23 24L23 23ZM28 23L28 25L27 25L27 26L28 26L28 25L29 25L29 23ZM0 24L0 29L1 29L1 26L2 26L2 25L1 25L1 24ZM23 25L23 26L24 26L24 28L25 28L25 25ZM23 29L23 30L24 30L24 32L25 32L25 30L26 30L26 31L27 31L27 30L26 30L26 29ZM29 29L29 32L32 32L32 29ZM33 29L33 30L34 30L34 29ZM30 30L30 31L31 31L31 30ZM8 32L8 37L11 37L11 36L9 36L9 35L10 35L10 34L9 34L9 32ZM33 32L33 33L34 33L34 32ZM30 34L30 35L31 35L31 36L32 36L32 35L33 35L33 34ZM0 0L0 7L7 7L7 0ZM1 1L1 6L6 6L6 1ZM2 2L2 5L5 5L5 2ZM30 0L30 7L37 7L37 0ZM31 1L31 6L36 6L36 1ZM32 2L32 5L35 5L35 2ZM0 30L0 37L7 37L7 30ZM1 31L1 36L6 36L6 31ZM2 32L2 35L5 35L5 32Z" fill="#000000"/></g></g></svg>
