<?xml version="1.0" encoding="UTF-8"?>
<svg xmlns="http://www.w3.org/2000/svg" version="1.1" width="300" height="300" viewBox="0 0 300 300"><rect x="0" y="0" width="300" height="300" fill="#ffffff"/><g transform="scale(8.108)"><g transform="translate(0,0)"><path fill-rule="evenodd" d="M9 0L9 1L8 1L8 2L9 2L9 3L8 3L8 4L10 4L10 2L11 2L11 1L12 1L12 2L13 2L13 1L12 1L12 0L11 0L11 1L10 1L10 0ZM14 0L14 1L15 1L15 4L14 4L14 3L12 3L12 4L11 4L11 5L10 5L10 7L11 7L11 5L12 5L12 8L13 8L13 9L14 9L14 10L12 10L12 9L11 9L11 8L6 8L6 9L5 9L5 8L0 8L0 9L2 9L2 11L0 11L0 16L1 16L1 17L0 17L0 19L2 19L2 20L1 20L1 21L0 21L0 22L2 22L2 24L3 24L3 26L2 26L2 25L0 25L0 29L1 29L1 26L2 26L2 29L4 29L4 28L6 28L6 29L7 29L7 28L6 28L6 27L8 27L8 26L6 26L6 25L7 25L7 24L8 24L8 22L6 22L6 21L9 21L9 25L10 25L10 26L9 26L9 27L10 27L10 28L11 28L11 27L10 27L10 26L12 26L12 27L14 27L14 29L15 29L15 27L16 27L16 28L17 28L17 29L18 29L18 30L17 30L17 31L16 31L16 30L15 30L15 31L14 31L14 30L13 30L13 31L14 31L14 33L13 33L13 32L12 32L12 33L10 33L10 32L11 32L11 31L10 31L10 30L9 30L9 29L8 29L8 31L10 31L10 32L8 32L8 37L9 37L9 36L11 36L11 37L16 37L16 35L17 35L17 34L18 34L18 35L19 35L19 37L20 37L20 36L23 36L23 35L21 35L21 34L22 34L22 33L25 33L25 32L23 32L23 30L24 30L24 31L26 31L26 33L28 33L28 35L26 35L26 37L28 37L28 36L30 36L30 35L29 35L29 34L31 34L31 37L37 37L37 34L35 34L35 32L37 32L37 30L35 30L35 28L33 28L33 27L34 27L34 26L32 26L32 25L35 25L35 27L36 27L36 28L37 28L37 26L36 26L36 25L37 25L37 22L36 22L36 21L37 21L37 18L36 18L36 17L37 17L37 14L36 14L36 13L37 13L37 12L36 12L36 11L37 11L37 10L36 10L36 8L35 8L35 9L34 9L34 8L33 8L33 10L32 10L32 8L31 8L31 10L29 10L29 9L30 9L30 8L29 8L29 4L28 4L28 3L29 3L29 1L26 1L26 0L23 0L23 1L22 1L22 2L21 2L21 3L20 3L20 4L19 4L19 1L20 1L20 0L19 0L19 1L17 1L17 2L18 2L18 3L16 3L16 1L15 1L15 0ZM9 1L9 2L10 2L10 1ZM23 1L23 4L25 4L25 8L24 8L24 5L21 5L21 4L20 4L20 5L19 5L19 4L15 4L15 5L14 5L14 4L12 4L12 5L13 5L13 8L14 8L14 9L15 9L15 10L14 10L14 11L12 11L12 10L11 10L11 9L10 9L10 10L11 10L11 11L9 11L9 10L7 10L7 9L6 9L6 10L5 10L5 11L6 11L6 12L7 12L7 13L6 13L6 14L7 14L7 15L5 15L5 13L4 13L4 9L3 9L3 12L2 12L2 13L4 13L4 15L5 15L5 16L3 16L3 15L2 15L2 16L3 16L3 20L2 20L2 21L3 21L3 22L5 22L5 23L3 23L3 24L4 24L4 26L5 26L5 23L6 23L6 24L7 24L7 23L6 23L6 22L5 22L5 21L4 21L4 20L5 20L5 18L7 18L7 19L6 19L6 20L7 20L7 19L8 19L8 17L9 17L9 21L10 21L10 24L11 24L11 25L12 25L12 26L13 26L13 25L14 25L14 26L15 26L15 25L14 25L14 24L15 24L15 23L12 23L12 22L13 22L13 21L14 21L14 22L15 22L15 21L14 21L14 19L13 19L13 17L14 17L14 15L15 15L15 14L16 14L16 16L18 16L18 17L17 17L17 18L16 18L16 20L18 20L18 21L17 21L17 22L18 22L18 23L16 23L16 25L17 25L17 24L18 24L18 25L19 25L19 27L18 27L18 26L17 26L17 28L18 28L18 29L19 29L19 31L17 31L17 32L15 32L15 34L16 34L16 33L17 33L17 32L18 32L18 33L19 33L19 35L20 35L20 33L21 33L21 31L22 31L22 30L23 30L23 29L25 29L25 28L26 28L26 30L27 30L27 32L28 32L28 29L27 29L27 28L29 28L29 27L31 27L31 25L32 25L32 23L33 23L33 24L36 24L36 23L35 23L35 22L34 22L34 21L32 21L32 22L31 22L31 21L30 21L30 20L31 20L31 19L29 19L29 20L28 20L28 19L26 19L26 18L28 18L28 17L26 17L26 18L25 18L25 20L24 20L24 18L23 18L23 17L25 17L25 16L29 16L29 14L30 14L30 16L31 16L31 17L30 17L30 18L31 18L31 17L32 17L32 20L36 20L36 19L34 19L34 17L32 17L32 16L33 16L33 15L34 15L34 16L35 16L35 17L36 17L36 15L34 15L34 13L32 13L32 12L31 12L31 11L32 11L32 10L31 10L31 11L30 11L30 12L31 12L31 13L29 13L29 11L28 11L28 13L25 13L25 12L26 12L26 9L25 9L25 8L28 8L28 9L27 9L27 10L28 10L28 9L29 9L29 8L28 8L28 6L27 6L27 5L28 5L28 4L27 4L27 5L26 5L26 4L25 4L25 3L26 3L26 2L25 2L25 1ZM24 2L24 3L25 3L25 2ZM8 5L8 7L9 7L9 5ZM15 5L15 6L14 6L14 7L15 7L15 9L17 9L17 11L18 11L18 10L20 10L20 9L23 9L23 10L21 10L21 12L20 12L20 13L18 13L18 12L16 12L16 10L15 10L15 13L14 13L14 12L12 12L12 11L11 11L11 12L10 12L10 14L12 14L12 15L10 15L10 16L9 16L9 17L10 17L10 18L12 18L12 17L10 17L10 16L13 16L13 13L14 13L14 14L15 14L15 13L17 13L17 15L18 15L18 14L20 14L20 13L21 13L21 14L24 14L24 16L25 16L25 15L26 15L26 14L25 14L25 13L23 13L23 10L24 10L24 12L25 12L25 9L23 9L23 8L22 8L22 7L23 7L23 6L22 6L22 7L21 7L21 6L20 6L20 7L21 7L21 8L20 8L20 9L19 9L19 8L16 8L16 7L17 7L17 6L16 6L16 5ZM18 5L18 7L19 7L19 5ZM15 6L15 7L16 7L16 6ZM26 6L26 7L27 7L27 6ZM6 10L6 11L7 11L7 12L8 12L8 13L7 13L7 14L9 14L9 11L7 11L7 10ZM35 10L35 11L34 11L34 12L35 12L35 13L36 13L36 12L35 12L35 11L36 11L36 10ZM28 13L28 14L27 14L27 15L28 15L28 14L29 14L29 13ZM31 14L31 15L32 15L32 14ZM21 15L21 16L20 16L20 17L18 17L18 18L17 18L17 19L18 19L18 20L19 20L19 19L18 19L18 18L20 18L20 17L23 17L23 15ZM6 16L6 17L8 17L8 16ZM1 17L1 18L2 18L2 17ZM22 18L22 19L21 19L21 20L20 20L20 21L18 21L18 22L20 22L20 21L21 21L21 20L22 20L22 19L23 19L23 18ZM10 20L10 21L11 21L11 22L12 22L12 21L13 21L13 20L12 20L12 21L11 21L11 20ZM25 20L25 21L23 21L23 22L22 22L22 23L21 23L21 24L20 24L20 26L21 26L21 25L23 25L23 26L22 26L22 27L21 27L21 28L20 28L20 31L21 31L21 29L23 29L23 28L22 28L22 27L23 27L23 26L24 26L24 28L25 28L25 27L26 27L26 28L27 28L27 27L29 27L29 25L31 25L31 24L29 24L29 23L30 23L30 22L29 22L29 21L28 21L28 22L27 22L27 23L26 23L26 24L25 24L25 22L26 22L26 21L27 21L27 20ZM23 22L23 25L25 25L25 26L26 26L26 27L27 27L27 26L28 26L28 25L25 25L25 24L24 24L24 22ZM28 22L28 23L29 23L29 22ZM33 22L33 23L34 23L34 22ZM18 23L18 24L19 24L19 23ZM3 27L3 28L4 28L4 27ZM11 29L11 30L12 30L12 29ZM29 29L29 32L32 32L32 29ZM33 29L33 31L34 31L34 32L35 32L35 31L34 31L34 29ZM30 30L30 31L31 31L31 30ZM9 33L9 34L10 34L10 35L11 35L11 36L14 36L14 35L12 35L12 34L13 34L13 33L12 33L12 34L10 34L10 33ZM31 33L31 34L32 34L32 36L36 36L36 35L33 35L33 34L34 34L34 33L33 33L33 34L32 34L32 33ZM24 34L24 36L25 36L25 34ZM17 36L17 37L18 37L18 36ZM0 0L0 7L7 7L7 0ZM1 1L1 6L6 6L6 1ZM2 2L2 5L5 5L5 2ZM30 0L30 7L37 7L37 0ZM31 1L31 6L36 6L36 1ZM32 2L32 5L35 5L35 2ZM0 30L0 37L7 37L7 30ZM1 31L1 36L6 36L6 31ZM2 32L2 35L5 35L5 32Z" fill="#000000"/></g></g></svg>
