<?xml version="1.0" encoding="UTF-8"?>
<svg xmlns="http://www.w3.org/2000/svg" version="1.1" width="300" height="300" viewBox="0 0 300 300"><rect x="0" y="0" width="300" height="300" fill="#ffffff"/><g transform="scale(8.108)"><g transform="translate(0,0)"><path fill-rule="evenodd" d="M8 0L8 1L9 1L9 3L10 3L10 4L11 4L11 0ZM13 0L13 1L12 1L12 2L13 2L13 3L12 3L12 4L15 4L15 3L17 3L17 5L16 5L16 7L17 7L17 5L18 5L18 4L19 4L19 5L23 5L23 6L22 6L22 7L23 7L23 6L24 6L24 8L26 8L26 9L27 9L27 11L26 11L26 12L27 12L27 13L24 13L24 12L25 12L25 9L22 9L22 8L21 8L21 6L20 6L20 7L19 7L19 6L18 6L18 8L17 8L17 9L16 9L16 8L15 8L15 6L14 6L14 7L13 7L13 5L11 5L11 6L10 6L10 5L9 5L9 6L8 6L8 8L9 8L9 9L10 9L10 10L8 10L8 9L7 9L7 8L6 8L6 9L7 9L7 10L5 10L5 8L3 8L3 9L2 9L2 8L0 8L0 12L1 12L1 13L0 13L0 14L1 14L1 16L2 16L2 19L0 19L0 20L1 20L1 21L2 21L2 22L3 22L3 23L4 23L4 21L2 21L2 20L4 20L4 19L5 19L5 20L6 20L6 21L7 21L7 22L5 22L5 23L7 23L7 24L5 24L5 25L4 25L4 24L3 24L3 25L4 25L4 26L1 26L1 25L2 25L2 24L1 24L1 22L0 22L0 24L1 24L1 25L0 25L0 29L1 29L1 27L4 27L4 28L3 28L3 29L5 29L5 27L7 27L7 26L6 26L6 25L8 25L8 27L9 27L9 29L8 29L8 30L9 30L9 31L10 31L10 30L9 30L9 29L12 29L12 28L11 28L11 26L12 26L12 27L13 27L13 26L12 26L12 23L14 23L14 22L15 22L15 23L16 23L16 24L15 24L15 25L14 25L14 24L13 24L13 25L14 25L14 27L15 27L15 28L16 28L16 26L18 26L18 27L20 27L20 28L21 28L21 29L20 29L20 30L19 30L19 29L15 29L15 30L14 30L14 31L13 31L13 32L12 32L12 33L11 33L11 34L10 34L10 33L9 33L9 32L8 32L8 34L9 34L9 35L8 35L8 37L9 37L9 36L10 36L10 35L11 35L11 36L12 36L12 37L13 37L13 36L12 36L12 35L14 35L14 36L15 36L15 37L17 37L17 36L18 36L18 35L19 35L19 36L20 36L20 37L21 37L21 35L19 35L19 33L20 33L20 32L21 32L21 33L22 33L22 34L23 34L23 36L22 36L22 37L24 37L24 36L25 36L25 37L26 37L26 36L27 36L27 37L30 37L30 36L27 36L27 34L28 34L28 35L30 35L30 34L31 34L31 36L32 36L32 35L33 35L33 37L34 37L34 36L36 36L36 37L37 37L37 34L36 34L36 35L35 35L35 34L34 34L34 32L33 32L33 30L34 30L34 29L35 29L35 30L36 30L36 31L35 31L35 32L37 32L37 30L36 30L36 28L37 28L37 26L36 26L36 25L37 25L37 22L36 22L36 21L37 21L37 18L36 18L36 20L35 20L35 22L36 22L36 23L34 23L34 19L33 19L33 18L34 18L34 17L37 17L37 14L36 14L36 13L37 13L37 12L35 12L35 11L37 11L37 10L36 10L36 9L37 9L37 8L36 8L36 9L35 9L35 10L33 10L33 9L31 9L31 8L30 8L30 9L31 9L31 10L30 10L30 11L31 11L31 12L30 12L30 13L31 13L31 14L35 14L35 15L34 15L34 16L33 16L33 15L32 15L32 16L33 16L33 18L32 18L32 17L31 17L31 16L30 16L30 14L29 14L29 10L28 10L28 9L29 9L29 6L28 6L28 7L27 7L27 6L26 6L26 7L25 7L25 4L26 4L26 3L28 3L28 5L29 5L29 3L28 3L28 2L29 2L29 0L28 0L28 2L24 2L24 3L25 3L25 4L24 4L24 5L23 5L23 4L19 4L19 3L20 3L20 2L21 2L21 3L22 3L22 2L23 2L23 0L22 0L22 1L21 1L21 0L20 0L20 1L18 1L18 0L16 0L16 1L18 1L18 3L17 3L17 2L15 2L15 1L14 1L14 0ZM24 0L24 1L25 1L25 0ZM26 0L26 1L27 1L27 0ZM14 2L14 3L15 3L15 2ZM9 6L9 7L10 7L10 9L12 9L12 10L13 10L13 11L11 11L11 10L10 10L10 11L9 11L9 12L8 12L8 10L7 10L7 11L6 11L6 12L5 12L5 10L4 10L4 9L3 9L3 11L2 11L2 12L5 12L5 14L4 14L4 13L1 13L1 14L4 14L4 15L3 15L3 19L4 19L4 18L5 18L5 17L4 17L4 16L7 16L7 15L8 15L8 17L6 17L6 18L7 18L7 19L6 19L6 20L7 20L7 19L8 19L8 18L9 18L9 20L8 20L8 21L10 21L10 19L11 19L11 21L12 21L12 22L13 22L13 21L12 21L12 20L13 20L13 19L14 19L14 20L16 20L16 21L15 21L15 22L17 22L17 23L19 23L19 24L17 24L17 25L19 25L19 24L20 24L20 27L21 27L21 28L22 28L22 27L23 27L23 28L24 28L24 29L23 29L23 30L20 30L20 31L21 31L21 32L22 32L22 33L23 33L23 34L25 34L25 36L26 36L26 33L23 33L23 32L25 32L25 31L26 31L26 32L27 32L27 31L28 31L28 30L27 30L27 29L26 29L26 30L25 30L25 31L23 31L23 30L24 30L24 29L25 29L25 28L27 28L27 26L25 26L25 28L24 28L24 26L23 26L23 23L22 23L22 22L21 22L21 23L20 23L20 22L18 22L18 21L19 21L19 20L18 20L18 19L19 19L19 18L17 18L17 17L20 17L20 18L21 18L21 21L22 21L22 19L23 19L23 21L26 21L26 20L24 20L24 19L23 19L23 18L24 18L24 17L25 17L25 16L26 16L26 19L27 19L27 16L26 16L26 15L27 15L27 14L25 14L25 16L24 16L24 14L23 14L23 16L24 16L24 17L23 17L23 18L21 18L21 16L22 16L22 13L23 13L23 12L22 12L22 11L23 11L23 10L22 10L22 11L20 11L20 10L16 10L16 11L14 11L14 10L15 10L15 8L12 8L12 6L11 6L11 7L10 7L10 6ZM31 10L31 11L33 11L33 12L32 12L32 13L33 13L33 12L34 12L34 13L35 13L35 12L34 12L34 11L33 11L33 10ZM10 11L10 12L9 12L9 14L8 14L8 12L6 12L6 13L7 13L7 14L6 14L6 15L7 15L7 14L8 14L8 15L9 15L9 16L10 16L10 17L9 17L9 18L10 18L10 17L12 17L12 16L13 16L13 14L14 14L14 16L15 16L15 17L13 17L13 18L15 18L15 19L17 19L17 18L15 18L15 17L17 17L17 15L18 15L18 14L19 14L19 15L20 15L20 16L21 16L21 15L20 15L20 14L21 14L21 13L22 13L22 12L21 12L21 13L20 13L20 12L19 12L19 13L17 13L17 14L16 14L16 12L18 12L18 11L16 11L16 12L14 12L14 13L13 13L13 12L12 12L12 13L11 13L11 11ZM27 11L27 12L28 12L28 11ZM14 13L14 14L15 14L15 13ZM19 13L19 14L20 14L20 13ZM9 14L9 15L12 15L12 14ZM15 15L15 16L16 16L16 15ZM35 15L35 16L36 16L36 15ZM29 16L29 17L28 17L28 19L29 19L29 21L28 21L28 20L27 20L27 21L28 21L28 23L27 23L27 24L26 24L26 22L25 22L25 24L24 24L24 25L27 25L27 24L28 24L28 25L29 25L29 26L28 26L28 27L32 27L32 28L33 28L33 27L32 27L32 25L33 25L33 24L32 24L32 22L31 22L31 21L32 21L32 18L31 18L31 17L30 17L30 16ZM0 17L0 18L1 18L1 17ZM11 18L11 19L12 19L12 18ZM30 18L30 19L31 19L31 18ZM17 20L17 21L18 21L18 20ZM30 20L30 21L31 21L31 20ZM10 22L10 23L11 23L11 22ZM29 23L29 24L30 24L30 25L32 25L32 24L30 24L30 23ZM8 24L8 25L10 25L10 26L11 26L11 25L10 25L10 24ZM21 24L21 26L22 26L22 24ZM34 24L34 26L35 26L35 25L36 25L36 24ZM15 25L15 26L16 26L16 25ZM4 26L4 27L5 27L5 26ZM35 27L35 28L36 28L36 27ZM6 28L6 29L7 29L7 28ZM29 29L29 32L32 32L32 29ZM11 30L11 31L12 31L12 30ZM17 30L17 32L18 32L18 33L19 33L19 31L18 31L18 30ZM30 30L30 31L31 31L31 30ZM14 31L14 32L15 32L15 33L14 33L14 35L15 35L15 36L16 36L16 35L15 35L15 33L16 33L16 34L17 34L17 33L16 33L16 31ZM22 31L22 32L23 32L23 31ZM12 33L12 34L13 34L13 33ZM28 33L28 34L29 34L29 33ZM31 33L31 34L33 34L33 33ZM0 0L0 7L7 7L7 0ZM1 1L1 6L6 6L6 1ZM2 2L2 5L5 5L5 2ZM30 0L30 7L37 7L37 0ZM31 1L31 6L36 6L36 1ZM32 2L32 5L35 5L35 2ZM0 30L0 37L7 37L7 30ZM1 31L1 36L6 36L6 31ZM2 32L2 35L5 35L5 32Z" fill="#000000"/></g></g></svg>
