<svg version="1.2" xmlns="http://www.w3.org/2000/svg" viewBox="0 0 43 50" width="43" height="50">
	<title>file-checkmark-icon</title>
	<style>
		.s0 { fill: #ffffff } 
	</style>
	<path fill-rule="evenodd" class="s0" d="m31.7 27.3c3.1 0 5.9 1.2 8 3.3 2 2 3.3 4.9 3.3 8 0 3.1-1.3 5.9-3.3 8l-0.1 0.1c-2.1 2-4.9 3.2-7.9 3.2-3.1 0-6-1.3-8-3.3-2.1-2.1-3.3-4.9-3.3-8 0-3.1 1.2-6 3.3-8 2-2.1 4.9-3.3 8-3.3zm0.9-11.8h-4c-2.2-0.1-3.9-0.7-5.2-1.7-1.3-1.1-2-2.7-2.2-4.6v-0.2-6.5h-15.1c-1 0-1.9 0.4-2.6 1-0.6 0.7-1 1.6-1 2.6v32.8c0 1 0.4 1.9 1 2.6 0.7 0.7 1.6 1.1 2.6 1.1h11.7q0.3 1.3 0.9 2.5h-12.6c-1.7 0-3.2-0.7-4.3-1.8-1.1-1.2-1.8-2.7-1.8-4.4v-32.8c0-1.7 0.7-3.2 1.8-4.3 1.1-1.1 2.6-1.8 4.3-1.8h17c0.4 0 0.7 0.2 1 0.5l10.6 11.5q0.4 0.4 0.4 0.9v11.6q-1.2-0.3-2.5-0.3zm-8.9-11.8v5.3q0.2 1.9 1.3 2.9 1.2 1 3.6 1.1h3.7zm-13.5 17c-0.7 0-1.3-0.5-1.3-1.2 0-0.7 0.6-1.2 1.3-1.2h14.7c0.6 0 1.2 0.5 1.2 1.2 0 0.7-0.6 1.2-1.2 1.2zm0 7.1c-0.7 0-1.3-0.6-1.3-1.2 0-0.7 0.6-1.3 1.3-1.3h13.8c0.4 0 0.7 0.2 1 0.4q-0.4 0.2-0.8 0.5-0.4 0.2-0.8 0.5-0.4 0.2-0.7 0.5-0.4 0.3-0.7 0.6zm0 7c-0.7 0-1.2-0.5-1.2-1.2 0-0.7 0.5-1.2 1.2-1.2h8.4q-0.6 1.2-0.9 2.4zm17.6 1.7l-1.8 1.8q-0.3 0.4 0 0.7l3.6 3.6c1 1 0.8 0.9 1.8-0.1l5.7-5.6c0.5-0.5 0.5-0.8 0-1.3l-1.5-1.5c-0.4-0.5-0.7-0.2-1 0.2l-4.1 4.1-2-1.9c-0.3-0.3-0.5-0.3-0.7 0z"/>
</svg>